<svg width="475" height="642" viewBox="0 0 475 642" fill="none" xmlns="http://www.w3.org/2000/svg">
<path d="M84.1683 610.56C128.039 564.225 171.91 517.887 215.78 471.552C261.134 423.648 307.206 376.327 351.887 327.795C376.587 300.965 413.556 294.133 444.941 314.31C460.224 324.135 475.164 334.533 490.264 344.635C499.237 350.639 507.619 336.155 498.706 330.19C483.985 320.341 469.335 310.377 454.543 300.641C428.728 283.65 396.259 280.755 368.189 294.122C345.998 304.687 327.97 328.734 311.219 346.426C249.351 411.771 187.483 477.117 125.614 542.462C107.856 561.218 90.0991 579.974 72.3402 598.732C64.9396 606.545 76.7476 618.395 84.1683 610.56Z" fill="#263238"/>
<path d="M370.869 312.057C370.606 312.24 367.912 309.182 364.854 305.227C361.796 301.273 359.516 297.902 359.766 297.699C360.014 297.496 362.708 300.552 365.782 304.529C368.855 308.506 371.135 311.876 370.869 312.057Z" fill="#455A64"/>
<path d="M355.497 324.893C355.234 325.076 352.54 322.018 349.482 318.063C346.424 314.109 344.145 310.739 344.394 310.536C344.642 310.333 347.336 313.388 350.41 317.365C353.483 321.34 355.761 324.71 355.497 324.893Z" fill="#455A64"/>
<path d="M342.338 338.251C342.124 338.49 338.796 336.137 334.908 332.997C331.018 329.856 328.025 327.101 328.219 326.847C328.413 326.593 331.739 328.944 335.649 332.102C339.557 335.26 342.552 338.015 342.338 338.251Z" fill="#455A64"/>
<path d="M327.37 354.063C327.14 354.286 323.973 351.723 320.297 348.335C316.621 344.947 313.811 342.005 314.02 341.764C314.23 341.523 317.397 344.086 321.093 347.492C324.789 350.896 327.599 353.84 327.37 354.063Z" fill="#455A64"/>
<path d="M314.091 369.19C313.862 369.413 310.694 366.85 307.019 363.462C303.343 360.074 300.532 357.132 300.742 356.891C300.952 356.648 304.119 359.213 307.815 362.619C311.511 366.023 314.321 368.964 314.091 369.19Z" fill="#455A64"/>
<path d="M299.893 383.09C299.663 383.313 296.496 380.75 292.82 377.362C289.144 373.974 286.334 371.032 286.544 370.791C286.753 370.548 289.92 373.113 293.616 376.519C297.312 379.925 300.123 382.867 299.893 383.09Z" fill="#455A64"/>
<path d="M287.628 396.571C287.398 396.794 284.231 394.231 280.555 390.843C276.879 387.455 274.069 384.513 274.279 384.272C274.488 384.029 277.656 386.594 281.351 390C285.047 393.403 287.858 396.348 287.628 396.571Z" fill="#455A64"/>
<path d="M273.399 411.464C273.169 411.687 270.002 409.124 266.326 405.736C262.651 402.348 259.84 399.406 260.05 399.165C260.26 398.922 263.427 401.487 267.123 404.893C270.821 408.299 273.629 411.24 273.399 411.464Z" fill="#455A64"/>
<path d="M259.172 426.356C258.942 426.579 255.775 424.016 252.099 420.628C248.423 417.24 245.613 414.298 245.822 414.057C246.032 413.814 249.199 416.379 252.895 419.785C256.593 423.191 259.401 426.133 259.172 426.356Z" fill="#455A64"/>
<path d="M244.946 441.251C244.716 441.474 241.549 438.912 237.873 435.524C234.197 432.135 231.387 429.193 231.597 428.953C231.806 428.709 234.974 431.274 238.669 434.68C242.365 438.084 245.176 441.026 244.946 441.251Z" fill="#455A64"/>
<path d="M230.717 456.144C230.487 456.367 227.32 453.804 223.644 450.416C219.969 447.028 217.158 444.086 217.368 443.845C217.578 443.602 220.745 446.167 224.441 449.573C228.139 452.976 230.947 455.921 230.717 456.144Z" fill="#455A64"/>
<path d="M216.489 471.037C216.259 471.26 213.092 468.697 209.416 465.309C205.741 461.921 202.93 458.979 203.14 458.738C203.35 458.495 206.517 461.06 210.213 464.466C213.911 467.872 216.721 470.814 216.489 471.037Z" fill="#455A64"/>
<path d="M202.263 485.929C202.034 486.152 198.867 483.589 195.191 480.201C191.515 476.813 188.705 473.871 188.914 473.63C189.124 473.387 192.291 475.952 195.987 479.358C199.683 482.764 202.493 485.706 202.263 485.929Z" fill="#455A64"/>
<path d="M188.036 500.824C187.806 501.047 184.639 498.485 180.963 495.096C177.287 491.708 174.477 488.766 174.687 488.526C174.896 488.282 178.064 490.847 181.759 494.253C185.458 497.657 188.266 500.599 188.036 500.824Z" fill="#455A64"/>
<path d="M173.807 515.717C173.577 515.94 170.41 513.377 166.734 509.989C163.059 506.601 160.248 503.659 160.458 503.418C160.668 503.175 163.835 505.74 167.531 509.146C171.229 512.549 174.039 515.494 173.807 515.717Z" fill="#455A64"/>
<path d="M159.582 530.61C159.352 530.833 156.185 528.27 152.509 524.882C148.833 521.494 146.023 518.552 146.232 518.311C146.442 518.068 149.609 520.633 153.305 524.039C157.001 527.445 159.811 530.387 159.582 530.61Z" fill="#455A64"/>
<path d="M145.354 545.502C145.124 545.725 141.957 543.162 138.281 539.774C134.605 536.386 131.795 533.444 132.005 533.203C132.214 532.96 135.382 535.525 139.078 538.931C142.776 542.337 145.584 545.279 145.354 545.502Z" fill="#455A64"/>
<path d="M131.128 560.397C130.899 560.62 127.731 558.058 124.056 554.67C120.38 551.282 117.569 548.34 117.779 548.099C117.989 547.856 121.156 550.421 124.852 553.826C128.548 557.23 131.358 560.174 131.128 560.397Z" fill="#455A64"/>
<path d="M116.9 575.29C116.67 575.513 113.503 572.95 109.827 569.562C106.151 566.174 103.341 563.232 103.55 562.991C103.76 562.748 106.927 565.313 110.623 568.719C114.319 572.125 117.129 575.067 116.9 575.29Z" fill="#455A64"/>
<path d="M102.672 590.183C102.442 590.406 99.2752 587.843 95.5994 584.455C91.9237 581.067 89.1132 578.125 89.3229 577.884C89.5326 577.641 92.6998 580.206 96.3957 583.612C100.094 587.018 102.902 589.96 102.672 590.183Z" fill="#455A64"/>
<path d="M387.439 305C387.107 305.087 385.95 301.349 383.753 297.102C381.582 292.839 379.22 289.719 379.484 289.5C379.7 289.295 382.541 292.17 384.785 296.571C387.051 300.958 387.732 304.944 387.439 305Z" fill="#455A64"/>
<path d="M404.465 286.03C404.748 285.943 405.917 289.708 405.618 294.494C405.352 299.285 403.753 302.885 403.481 302.767C403.153 302.66 404.208 299.026 404.458 294.427C404.748 289.83 404.126 286.099 404.465 286.03Z" fill="#455A64"/>
<path d="M136.017 598.685H0.336914V614.896H136.017V598.685Z" fill="#263238"/>
<path d="M136.412 598.685C136.412 599.006 105.873 599.265 68.2094 599.265C30.5326 599.265 0 599.004 0 598.685C0 598.364 30.5326 598.105 68.2094 598.105C105.873 598.103 136.412 598.364 136.412 598.685Z" fill="#455A64"/>
<path d="M93.9176 615.447C93.5965 615.447 93.3378 611.758 93.3378 607.21C93.3378 602.66 93.5987 598.973 93.9176 598.973C94.2388 598.973 94.4976 602.66 94.4976 607.21C94.4976 611.758 94.2388 615.447 93.9176 615.447Z" fill="#455A64"/>
<path d="M402.279 72.3215C401.548 66.7008 397.397 62.2443 393.757 57.8994C386.187 48.8683 380.035 38.6484 375.597 27.7326C372.755 20.7424 370.4 13.1455 364.812 8.07346C359.227 2.99919 349.007 2.0936 344.95 8.45484L335.846 24.0813C343.329 44.5569 350.812 65.0346 358.297 85.5101C361.134 93.2721 365.299 102.203 373.442 103.612C381.661 105.035 388.616 97.8891 393.884 91.4208C398.407 85.867 403.203 79.4232 402.279 72.3215Z" fill="#263238"/>
<path d="M325.298 2.55729C309.243 -1.38391 293.578 1.17218 280.198 10.8836C272.65 16.3615 270.727 20.2291 266.447 25.7138C262.167 31.1962 259.486 37.7181 259.7 44.6704C259.952 52.9275 261.302 61.3764 265.515 68.4826C269.844 75.7829 274.207 83.1277 279.799 89.5113C285.393 95.8948 292.349 101.328 300.461 103.826L319.924 93.8807C329.676 87.06 339.55 80.13 347.183 71.0008C354.815 61.8716 360.07 50.1261 358.933 38.2801C357.349 21.8261 341.352 6.49849 325.298 2.55729Z" fill="#263238"/>
<path d="M309.894 13.955L280.089 22.0783L274.618 27.2797C261.164 37.4639 263.037 59.3334 271.16 70.3273C280.183 82.5413 291.683 97.0949 300.332 104.594C317.73 119.671 334.211 109.63 334.211 109.63L342.95 121.918L345.08 136.041L376.366 174.208L406.912 156.077L379.939 93.3968L375.974 90.7939L369.599 82.7264L320.594 15.5587C317.982 12.3267 313.334 11.6309 309.894 13.955Z" fill="#FFBF9D"/>
<path d="M324.154 80.103C323.317 79.2487 322.16 78.8071 321.053 78.7358C318.843 78.5952 316.795 79.958 316.102 82.0324C315.408 84.1067 316.115 86.7631 317.808 88.4516C319.449 88.9556 321.25 88.775 322.706 87.8672C322.934 87.7267 323.152 87.5728 323.362 87.4055C324.379 86.5981 325.171 85.4561 325.389 84.0955C325.605 82.7372 325.188 81.158 324.154 80.103Z" fill="#FF9A6C"/>
<path d="M288.848 80.8815C289.798 82.0949 291.609 82.2911 292.894 81.3231C294.176 80.3573 294.451 78.5908 293.503 77.3775C292.553 76.1641 290.741 75.9656 289.459 76.9314C288.172 77.8994 287.9 79.6681 288.848 80.8815Z" fill="#263238"/>
<path d="M279.83 73.3049C280.352 73.3629 280.99 70.6908 283.396 68.6767C285.772 66.6314 288.573 66.3839 288.586 65.8709C288.604 65.6322 287.882 65.3445 286.644 65.4314C285.421 65.5095 283.677 66.0537 282.185 67.3162C280.697 68.5831 279.901 70.1912 279.651 71.3644C279.392 72.5533 279.584 73.2893 279.83 73.3049Z" fill="#263238"/>
<path d="M310.688 80.8547C310.586 80.7097 308.875 81.7067 306.196 83.4309C305.529 83.8837 304.847 84.2495 304.392 83.9171C303.874 83.5959 303.575 82.7194 303.272 81.7558C302.601 79.7863 301.896 77.7232 301.158 75.5596C298.084 66.794 295.312 59.7926 294.959 59.9197C294.607 60.0469 296.81 67.2557 299.884 76.0213C300.658 78.1715 301.392 80.2213 302.096 82.1796C302.451 83.0718 302.717 84.1982 303.803 84.8539C304.354 85.1729 305.083 85.126 305.565 84.903C306.058 84.6933 306.408 84.4078 306.727 84.1714C309.274 82.2577 310.793 80.9975 310.688 80.8547Z" fill="#263238"/>
<path d="M334.163 109.632C334.163 109.632 346.504 100.543 352.239 83.817C352.239 83.817 356.173 101.098 337.388 114.118L334.163 109.632Z" fill="#FF9A6C"/>
<path d="M319.153 76.5723C318.744 76.8779 320.93 79.4875 320.255 83.2146C319.59 86.9439 316.565 88.987 316.851 89.3684C316.951 89.5624 317.895 89.355 319.095 88.4003C320.279 87.4725 321.649 85.6903 322.061 83.4108C322.469 81.1313 321.78 79.1261 320.97 77.9819C320.152 76.8087 319.318 76.4072 319.153 76.5723Z" fill="#263238"/>
<path d="M274.091 63.8921C274.988 64.1396 276.498 62.2014 278.795 60.5732C281.041 58.8713 283.35 58.0126 283.379 57.0892C283.372 56.6543 282.656 56.2796 281.416 56.3175C280.189 56.3465 278.463 56.8706 276.899 58.0148C275.338 59.1613 274.323 60.6445 273.933 61.8021C273.529 62.9664 273.679 63.756 274.091 63.8921Z" fill="#263238"/>
<path d="M315.194 59.1478C316.184 60.33 315.999 62.1411 314.784 63.1961C313.573 64.2489 311.786 64.1507 310.798 62.9708C309.808 61.7887 309.993 59.9753 311.204 58.9226C312.417 57.8653 314.204 57.9657 315.194 59.1478Z" fill="#263238"/>
<path d="M312.999 46.8649C312.948 47.3869 310.2 47.456 307.729 49.3898C305.233 51.2879 304.41 53.9756 303.903 53.8819C303.667 53.8507 303.538 53.0834 303.879 51.8901C304.211 50.7102 305.106 49.1177 306.651 47.9222C308.199 46.7289 309.939 46.2872 311.137 46.2872C312.355 46.2805 313.035 46.6196 312.999 46.8649Z" fill="#263238"/>
<path d="M305.464 39.9708C305.415 40.9121 303.051 41.8176 300.734 43.5775C298.36 45.2659 296.786 47.2599 295.88 47.019C295.461 46.8874 295.329 46.0845 295.764 44.8912C296.188 43.709 297.252 42.1856 298.862 40.9968C300.475 39.8124 302.239 39.2571 303.486 39.2102C304.748 39.1567 305.464 39.5292 305.464 39.9708Z" fill="#263238"/>
<path d="M340.391 48.3996C339.305 47.1014 338.232 42.7855 339.345 41.5097C342.314 38.1038 348.704 33.1968 356.062 41.8287C366.117 53.6277 352.197 61.2893 351.889 60.9704C351.646 60.7183 344.143 52.8828 340.391 48.3996Z" fill="#FFBF9D"/>
<path d="M351.47 53.8844C351.49 53.8018 351.798 53.8531 352.279 53.7171C352.75 53.5832 353.426 53.1929 353.843 52.439C354.699 50.9201 354.062 48.0451 352.306 45.8704C351.421 44.7708 350.326 43.9388 349.224 43.4169C348.129 42.8615 347.056 42.7344 346.333 43.1582C345.586 43.544 345.461 44.3001 345.599 44.7552C345.722 45.2213 345.998 45.3931 345.954 45.4644C345.947 45.5224 345.532 45.4823 345.213 44.9157C345.062 44.6392 344.964 44.2421 345.048 43.7804C345.135 43.3098 345.452 42.8369 345.929 42.5113C346.893 41.7998 348.425 41.9381 349.634 42.5113C350.899 43.0466 352.155 43.9589 353.149 45.1923C355.101 47.6347 355.779 50.8956 354.494 52.8427C353.85 53.7661 352.942 54.1074 352.349 54.1319C351.733 54.152 351.447 53.9423 351.47 53.8844Z" fill="#FF9A6C"/>
<path d="M339.876 41.1666L339.182 46.7896C315.847 43.997 264.881 31.3995 267.819 32.2247C267.819 32.2247 274.243 21.4138 285.627 15.5499C297.011 9.68608 319.949 0.353907 328.599 12.4764C337.248 24.6011 339.876 41.1666 339.876 41.1666Z" fill="#263238"/>
<path d="M493.773 242.667C495.932 245.547 515.372 283.881 511.772 305.394C508.172 326.907 482.429 350.5 473.029 369.209C464.007 387.169 423.212 441.153 421.771 461.432C420.331 481.709 402.331 542.19 387.211 584.668L383.412 594.917L346.17 589.707C346.17 589.707 362.011 531.388 367.05 507.627C372.09 483.866 367.391 479.505 371.37 461.43C375.349 443.354 388.939 396.414 388.939 396.414L422.492 295.228L418.45 260.667L493.773 242.667Z" fill="#263238"/>
<path d="M502.725 249.053C502.725 249.053 522.706 272.705 523.245 300.57C523.785 328.435 513.063 335.454 512.216 357.593C511.368 379.733 501.646 406.192 504.886 432.112C508.127 458.033 522.746 463.432 523.265 494.752C523.785 526.072 516.034 588.17 516.034 588.17L483.481 587.376C483.481 587.376 476.399 512.957 476.939 505.936C477.479 498.917 475.297 489.37 467.199 468.31C459.098 447.251 454.666 441.833 455.206 415.373C455.745 388.913 464.926 278.056 464.926 278.056L469.246 249.053H502.725Z" fill="#263238"/>
<path d="M464.58 393.633C464.545 393.615 464.737 393.167 465.136 392.33C465.604 391.391 466.204 390.189 466.945 388.706C468.553 385.577 470.93 381.075 474.031 375.602C477.142 370.135 480.947 363.671 485.607 356.764C490.141 349.727 496.469 343.035 501.543 334.954C506.685 326.931 510.958 318.77 513.168 310.836C515.341 302.885 515.847 295.353 515.406 289.141C514.986 282.907 513.521 277.998 512.067 274.837C510.572 271.681 509.274 270.198 509.397 270.111C509.397 270.111 510.827 271.491 512.475 274.641C514.081 277.792 515.696 282.76 516.226 289.078C516.777 295.377 516.356 303.012 514.201 311.122C511.995 319.247 507.708 327.489 502.52 335.588C497.37 343.778 491.018 350.443 486.495 357.368C481.811 364.207 477.941 370.612 474.745 376.015C471.559 381.426 469.073 385.862 467.344 388.922C466.525 390.363 465.863 391.53 465.345 392.442C464.877 393.24 464.616 393.651 464.58 393.633Z" fill="#455A64"/>
<path d="M482.912 561.615L484.554 595.752C484.554 595.752 450.93 608.909 450.629 615.248L515.934 614.394L515.526 561.099L482.912 561.615Z" fill="#263238"/>
<path d="M515.934 614.394L515.686 609.023L453.165 611.849C453.165 611.849 450.274 613.171 450.629 615.246L515.934 614.394Z" fill="#455A64"/>
<path d="M472.893 606.768C473.183 606.833 473.606 605.209 472.765 603.447C471.936 601.678 470.423 600.998 470.292 601.27C470.116 601.54 471.095 602.476 471.764 603.935C472.467 605.374 472.574 606.739 472.893 606.768Z" fill="white"/>
<path d="M359.332 560.096L348.615 594.986C348.615 594.986 313.653 608.668 313.338 615.259L381.242 614.371L381.121 598.515L389.682 565.058L359.332 560.096Z" fill="#263238"/>
<path d="M381.244 614.371L381.204 609.074L315.977 611.726C315.977 611.726 312.97 613.102 313.34 615.259L381.244 614.371Z" fill="#455A64"/>
<path d="M348.394 595.205C348.409 595.542 350.069 595.673 351.715 596.733C353.388 597.75 354.246 599.197 354.55 599.059C354.855 598.99 354.336 596.985 352.319 595.734C350.319 594.469 348.318 594.897 348.394 595.205Z" fill="white"/>
<path d="M340.677 598.372C340.605 598.7 342.049 599.253 343.193 600.663C344.377 602.037 344.681 603.574 345.011 603.554C345.323 603.603 345.528 601.629 344.072 599.905C342.633 598.167 340.679 598.051 340.677 598.372Z" fill="white"/>
<path d="M336.303 607.225C336.606 607.292 337.046 605.603 336.172 603.772C335.308 601.932 333.736 601.225 333.6 601.508C333.415 601.787 334.434 602.764 335.13 604.278C335.861 605.777 335.973 607.194 336.303 607.225Z" fill="white"/>
<path d="M377.887 86.5071C377.887 86.5071 403.519 87.0201 421.461 104.962C439.402 122.904 482.526 193.649 483.264 204.415C484.002 215.182 483.264 223.383 483.264 223.383L507.585 249.053C507.585 249.053 490.154 259.269 470.675 259.269C451.195 259.269 413.772 249.053 413.772 249.053L403.519 227.483L352.767 190.573C352.767 190.573 336.362 143.923 342.001 128.031C347.64 112.139 377.887 86.5071 377.887 86.5071Z" fill="#455A64"/>
<path d="M377.887 86.5068L369.596 82.724L343.375 116.678L343.821 129.798L377.887 86.5068Z" fill="#455A64"/>
<path d="M375.216 84.4951C375.35 84.5687 374.398 86.6274 372.613 89.8259C370.831 93.0243 368.183 97.3447 364.965 101.915C361.742 106.485 358.564 110.431 356.15 113.185C353.737 115.942 352.12 117.528 352.006 117.428C351.879 117.316 353.277 115.538 355.517 112.661C357.758 109.786 360.812 105.785 364.017 101.243C367.215 96.7001 369.954 92.4801 371.911 89.4021C373.864 86.3263 375.069 84.4126 375.216 84.4951Z" fill="#263238"/>
<path d="M400.172 242.667C399.451 245.546 411.848 291.103 411.848 291.103L374.252 447.148C374.252 447.148 395.131 466.588 448.412 460.109C448.412 460.109 481.532 330.509 482.972 297.389C484.413 264.269 480.093 242.669 480.093 242.669L471.452 224.669C471.452 224.669 427.532 224.669 406.653 216.749C385.774 208.829 364.172 190.829 364.172 190.829L342.573 139.709L341.72 147.708L343.375 185.766L400.172 242.667Z" fill="#FFEF5E"/>
<path d="M471.452 224.667L483.264 223.383L489.231 229.679L478.507 242.667L471.452 224.667Z" fill="#FFEF5E"/>
<path d="M484.83 229.568C484.794 229.588 484.569 229.26 484.172 228.615C483.771 227.973 483.215 227.005 482.533 225.738C481.175 223.204 479.334 219.455 477.532 214.626C475.737 209.797 473.948 203.906 472.826 197.155C472.306 193.778 472.052 190.111 472.763 186.373C473.152 184.531 473.7 182.632 474.775 180.924C475.826 179.253 477.343 177.665 479.448 177.027C481.56 176.356 483.922 177.201 485.308 178.716C486.737 180.212 487.527 182.055 488.1 183.852C489.101 187.501 489.61 191.032 489.904 194.452C490.48 201.279 489.831 207.464 488.825 212.518C487.786 217.579 486.347 221.522 485.225 224.17C484.67 225.499 484.177 226.503 483.82 227.172C483.472 227.846 483.273 228.189 483.235 228.171C483.133 228.122 483.82 226.69 484.803 224.003C485.789 221.322 487.092 217.381 488.015 212.362C488.907 207.35 489.458 201.252 488.834 194.541C488.522 191.206 487.977 187.66 487.009 184.194C486.465 182.496 485.702 180.792 484.476 179.523C483.284 178.25 481.456 177.621 479.767 178.143C478.079 178.644 476.702 180.016 475.75 181.537C474.778 183.065 474.253 184.836 473.877 186.591C473.185 190.129 473.399 193.68 473.881 196.994C474.927 203.645 476.62 209.527 478.302 214.345C479.99 219.172 481.703 222.948 482.932 225.533C484.172 228.118 484.91 229.523 484.83 229.568Z" fill="#FFEF5E"/>
<path d="M445.16 239.076C445.189 239.395 435.178 240.597 422.804 241.759C410.425 242.921 400.368 243.606 400.337 243.287C400.308 242.968 410.316 241.766 422.695 240.604C435.071 239.442 445.131 238.757 445.16 239.076Z" fill="#263238"/>
<path d="M338.843 179.392C338.466 179.49 331.75 249.053 331.75 249.053L310.22 311.044L327.138 333.087C327.138 333.087 357.418 277.306 361.246 256.24C365.073 235.173 379.941 172.886 379.941 172.886L357.898 159.813L338.843 179.392Z" fill="#FFBF9D"/>
<path d="M361.995 115.563C359.968 115.875 343.545 120.693 340.822 133.504C338.098 146.316 335.37 180.667 335.37 180.667C335.37 180.667 376.348 175.281 379.937 179.126C383.526 182.971 387.114 140.053 387.114 140.053C387.114 140.053 375.9 113.417 361.995 115.563Z" fill="#455A64"/>
<path d="M310.217 303.791C310.217 305.841 282.022 373.075 281.509 378.716C280.996 384.355 269.206 402.299 274.332 407.424C279.457 412.55 288.555 388.456 288.555 388.456C288.555 388.456 290.737 395.634 297.401 394.095C304.066 392.556 302.016 387.944 302.016 387.944C302.016 387.944 308.6 384.868 314.023 379.742C319.445 374.617 320.384 354.244 320.384 351.324C320.384 348.404 337.083 317.189 337.083 317.189C324.222 318.773 318.646 315.59 310.217 303.791Z" fill="#455A64"/>
<path d="M298.205 376.615C298.37 376.619 298.466 377.422 298.552 378.689C298.651 379.95 298.742 381.691 299.324 383.438C299.909 385.167 301.008 386.482 301.97 387.169C302.933 387.879 303.718 388.042 303.689 388.222C303.692 388.354 302.795 388.499 301.541 387.87C300.301 387.265 298.896 385.807 298.222 383.81C297.564 381.83 297.62 379.965 297.727 378.683C297.854 377.389 298.048 376.611 298.205 376.615Z" fill="#263238"/>
<path d="M310.693 377.121C310.844 377.168 310.907 377.46 310.862 377.899C310.84 378.118 310.788 378.375 310.71 378.644C310.661 378.805 310.621 378.937 310.59 379.044C310.545 379.142 310.561 379.311 310.536 379.111C310.432 378.937 310.523 379.077 310.619 379.128C310.71 379.191 310.824 379.269 310.963 379.365C311.19 379.528 311.391 379.695 311.545 379.853C311.852 380.168 311.988 380.436 311.899 380.567C311.808 380.701 311.516 380.679 311.114 380.554C310.913 380.491 310.686 380.407 310.434 380.297C310.309 380.244 310.175 380.181 310.026 380.101C309.881 379.985 309.667 379.978 309.439 379.496C309.316 378.979 309.479 378.841 309.519 378.658C309.586 378.504 309.651 378.37 309.716 378.25C309.845 378.007 309.97 377.799 310.088 377.625C310.325 377.275 310.539 377.072 310.693 377.121Z" fill="#263238"/>
<path d="M390.668 122.116C390.469 122.279 388.926 119.417 384.81 116.573C380.8 113.732 373.899 111.283 366.369 112.411C358.835 113.578 352.875 117.624 349.228 120.963C345.523 124.337 343.775 126.969 343.601 126.835C343.543 126.795 343.92 126.104 344.736 124.937C345.55 123.771 346.848 122.158 348.666 120.363C352.239 116.805 358.328 112.483 366.197 111.26C374.086 110.078 381.26 112.784 385.29 115.904C387.344 117.456 388.749 119.02 389.564 120.193C390.387 121.366 390.723 122.085 390.668 122.116Z" fill="#263238"/>
<path d="M387.723 146.459C387.873 146.455 388.078 148.078 388.107 150.722C388.136 153.36 387.942 157.018 387.324 161.006C386.702 164.994 385.774 168.538 384.944 171.043C384.117 173.552 383.427 175.036 383.285 174.987C382.95 174.875 384.971 168.701 386.175 160.828C387.422 152.961 387.371 146.466 387.723 146.459Z" fill="#263238"/>
<path d="M402.045 252.985C402.058 253.061 377.78 292.179 374.45 297.36C371.12 302.541 367.787 310.283 374.45 311.778C381.112 313.272 381.112 306.612 384.072 300.69C387.034 294.768 396.116 295.879 401.197 290.327C406.278 284.776 409.318 279.224 409.318 279.224C409.318 279.224 401.775 251.404 402.045 252.985Z" fill="#455A64"/>
</svg>
