<svg width="301" height="287" viewBox="0 0 301 287" fill="none" xmlns="http://www.w3.org/2000/svg">
<path d="M71.7341 86.7136C56.3323 100.671 49.1752 124.225 52.1366 144.748C55.0305 164.804 76.3587 175.953 87.0867 193.112C96.2713 207.804 97.3725 227.369 110.704 238.428C124.362 249.76 142.885 254.654 160.659 254.149C177.672 253.664 193.227 245.162 207.396 235.677C220.227 227.088 230.018 215.251 238.267 202.198C246.246 189.572 250.102 175.53 254.433 161.245C259.798 143.55 275.576 124.355 266.782 108.148C257.816 91.6235 232.221 95.8812 214.943 88.4679C201.549 82.7212 190.787 72.0011 176.438 69.3853C161.277 66.6214 146.33 70.6647 131.106 73.1842C110.738 76.5551 87.0541 72.8302 71.7341 86.7136Z" fill="#357DD2"/>
<path d="M31.7476 255.193C48.2953 237.716 64.843 220.238 81.3907 202.76C98.4979 184.692 115.876 166.842 132.729 148.536C142.046 138.416 155.99 135.839 167.828 143.45C173.593 147.156 179.228 151.078 184.924 154.888C188.308 157.153 191.47 151.69 188.108 149.44C182.556 145.725 177.03 141.967 171.45 138.294C161.713 131.885 149.466 130.793 138.878 135.835C130.508 139.82 123.708 148.891 117.389 155.564C94.0533 180.212 70.7171 204.86 47.3808 229.507C40.6823 236.582 33.9847 243.657 27.2862 250.732C24.4947 253.679 28.9486 258.149 31.7476 255.193Z" fill="#263238"/>
<path d="M139.889 142.6C139.79 142.669 138.774 141.516 137.62 140.024C136.467 138.532 135.607 137.261 135.701 137.185C135.795 137.108 136.811 138.261 137.97 139.761C139.13 141.261 139.99 142.532 139.889 142.6Z" fill="#455A64"/>
<path d="M134.091 147.442C133.992 147.511 132.975 146.357 131.822 144.866C130.669 143.374 129.809 142.103 129.903 142.026C129.996 141.95 131.013 143.102 132.172 144.602C133.331 146.102 134.19 147.373 134.091 147.442Z" fill="#455A64"/>
<path d="M129.127 152.481C129.047 152.571 127.791 151.683 126.325 150.498C124.858 149.314 123.729 148.275 123.802 148.179C123.875 148.083 125.13 148.97 126.604 150.161C128.078 151.352 129.208 152.391 129.127 152.481Z" fill="#455A64"/>
<path d="M123.481 158.445C123.395 158.529 122.2 157.562 120.814 156.284C119.427 155.006 118.367 153.896 118.446 153.806C118.525 153.715 119.72 154.681 121.114 155.966C122.508 157.25 123.568 158.36 123.481 158.445Z" fill="#455A64"/>
<path d="M118.473 164.15C118.387 164.234 117.192 163.268 115.805 161.99C114.419 160.712 113.359 159.602 113.438 159.511C113.517 159.42 114.712 160.387 116.106 161.672C117.5 162.956 118.56 164.065 118.473 164.15Z" fill="#455A64"/>
<path d="M113.117 169.393C113.031 169.477 111.836 168.511 110.449 167.233C109.063 165.955 108.003 164.845 108.082 164.754C108.161 164.663 109.356 165.63 110.75 166.915C112.144 168.2 113.204 169.309 113.117 169.393Z" fill="#455A64"/>
<path d="M108.491 174.478C108.404 174.562 107.21 173.596 105.823 172.318C104.437 171.04 103.377 169.93 103.456 169.839C103.535 169.747 104.73 170.715 106.124 172C107.518 173.284 108.578 174.394 108.491 174.478Z" fill="#455A64"/>
<path d="M103.124 180.096C103.037 180.18 101.843 179.213 100.456 177.935C99.0698 176.657 98.0098 175.548 98.0889 175.457C98.168 175.365 99.3626 176.332 100.757 177.617C102.152 178.902 103.211 180.012 103.124 180.096Z" fill="#455A64"/>
<path d="M97.7577 185.713C97.671 185.797 96.4763 184.83 95.0899 183.553C93.7034 182.275 92.6433 181.165 92.7224 181.074C92.8015 180.982 93.9961 181.95 95.3902 183.235C96.7851 184.519 97.8443 185.629 97.7577 185.713Z" fill="#455A64"/>
<path d="M92.3917 191.331C92.305 191.415 91.1104 190.449 89.7239 189.171C88.3374 187.893 87.2774 186.783 87.3564 186.692C87.4355 186.601 88.6302 187.568 90.0242 188.853C91.4183 190.137 92.4783 191.246 92.3917 191.331Z" fill="#455A64"/>
<path d="M87.025 196.949C86.9383 197.033 85.7437 196.066 84.3572 194.788C82.9707 193.51 81.9107 192.401 81.9897 192.31C82.0688 192.218 83.2635 193.186 84.6575 194.47C86.0524 195.754 87.1116 196.865 87.025 196.949Z" fill="#455A64"/>
<path d="M81.6583 202.566C81.5716 202.65 80.377 201.684 78.9905 200.406C77.604 199.128 76.544 198.018 76.623 197.927C76.7021 197.835 77.8968 198.803 79.2908 200.088C80.6857 201.372 81.7458 202.482 81.6583 202.566Z" fill="#455A64"/>
<path d="M76.2926 208.184C76.2059 208.268 75.0113 207.301 73.6248 206.023C72.2383 204.745 71.1782 203.635 71.2573 203.545C71.3364 203.453 72.5311 204.42 73.9251 205.705C75.3192 206.99 76.3792 208.099 76.2926 208.184Z" fill="#455A64"/>
<path d="M70.9259 213.802C70.8392 213.886 69.6445 212.919 68.2581 211.641C66.8716 210.364 65.8115 209.254 65.8906 209.163C65.9697 209.071 67.1644 210.039 68.5584 211.323C69.9533 212.607 71.0125 213.717 70.9259 213.802Z" fill="#455A64"/>
<path d="M65.5589 219.419C65.4723 219.503 64.2776 218.537 62.8911 217.259C61.5046 215.981 60.4446 214.871 60.5237 214.78C60.6028 214.689 61.7974 215.656 63.1915 216.941C64.5864 218.225 65.6464 219.335 65.5589 219.419Z" fill="#455A64"/>
<path d="M60.1929 225.037C60.1063 225.121 58.9116 224.154 57.5252 222.876C56.1387 221.598 55.0786 220.489 55.1577 220.398C55.2368 220.306 56.4315 221.274 57.8255 222.558C59.2195 223.843 60.2796 224.953 60.1929 225.037Z" fill="#455A64"/>
<path d="M54.8262 230.654C54.7396 230.738 53.5449 229.772 52.1585 228.494C50.772 227.216 49.7119 226.106 49.791 226.015C49.8701 225.923 51.0648 226.891 52.4588 228.176C53.8537 229.46 54.9129 230.57 54.8262 230.654Z" fill="#455A64"/>
<path d="M49.4605 236.272C49.3739 236.356 48.1792 235.39 46.7927 234.112C45.4063 232.834 44.3462 231.724 44.4253 231.633C44.5044 231.542 45.699 232.509 47.0931 233.794C48.4871 235.078 49.5472 236.188 49.4605 236.272Z" fill="#455A64"/>
<path d="M44.0936 241.89C44.0069 241.974 42.8123 241.007 41.4258 239.729C40.0393 238.451 38.9793 237.342 39.0584 237.251C39.1374 237.159 40.3321 238.127 41.7262 239.411C43.1202 240.696 44.1803 241.806 44.0936 241.89Z" fill="#455A64"/>
<path d="M38.7271 247.507C38.6405 247.591 37.4458 246.625 36.0594 245.347C34.6729 244.069 33.6128 242.959 33.6919 242.868C33.771 242.777 34.9657 243.744 36.3597 245.029C37.7546 246.313 38.8138 247.423 38.7271 247.507Z" fill="#455A64"/>
<path d="M146.139 139.938C146.014 139.971 145.577 138.561 144.749 136.959C143.93 135.351 143.039 134.174 143.138 134.092C143.22 134.015 144.292 135.099 145.138 136.759C145.993 138.414 146.25 139.917 146.139 139.938Z" fill="#455A64"/>
<path d="M152.561 132.783C152.668 132.75 153.109 134.17 152.996 135.976C152.896 137.783 152.293 139.141 152.19 139.096C152.067 139.056 152.465 137.685 152.559 135.95C152.668 134.217 152.433 132.809 152.561 132.783Z" fill="#455A64"/>
<path d="M51.3046 250.714H0.126953V256.829H51.3046V250.714Z" fill="#263238"/>
<path d="M51.4536 250.714C51.4536 250.835 39.9344 250.933 25.7281 250.933C11.5167 250.933 0 250.835 0 250.714C0 250.593 11.5167 250.496 25.7281 250.496C39.9344 250.495 51.4536 250.593 51.4536 250.714Z" fill="#455A64"/>
<path d="M35.425 257.037C35.3039 257.037 35.2063 255.645 35.2063 253.93C35.2063 252.214 35.3047 250.823 35.425 250.823C35.5462 250.823 35.6438 252.214 35.6438 253.93C35.6438 255.645 35.5462 257.037 35.425 257.037Z" fill="#455A64"/>
<path d="M184.551 161.057C186.85 166.255 190.273 170.993 193.668 175.518C197.181 180.201 200.874 184.777 204.863 189.063C210.144 194.737 215.779 200.079 220.841 205.957C225.242 211.066 229.567 217.206 231.978 223.408C232.628 225.079 233.178 226.787 233.611 228.527C233.797 229.279 233.963 230.035 234.104 230.796C234.164 231.125 234.22 231.456 234.273 231.786C234.303 231.978 234.332 232.171 234.358 232.363C234.292 231.895 234.349 232.31 234.377 232.55C234.728 235.584 234.756 238.66 234.462 241.7C234.422 242.12 234.375 242.54 234.321 242.959C234.388 242.447 234.251 243.386 234.227 243.528C234.099 244.302 233.949 245.072 233.77 245.835C233.423 247.33 232.965 248.789 232.408 250.219C232.374 250.308 232.163 250.771 232.379 250.29C232.318 250.426 232.258 250.56 232.195 250.695C232.052 251.006 231.901 251.314 231.743 251.619C231.389 252.301 231 252.966 230.571 253.603C230.483 253.734 230.001 254.41 230.158 254.201C230.362 253.93 230.081 254.297 230.059 254.323C229.937 254.467 229.817 254.613 229.693 254.755C229.195 255.323 228.659 255.856 228.09 256.354C227.983 256.448 227.875 256.54 227.765 256.631C227.703 256.683 227.238 257.053 227.528 256.829C227.793 256.624 227.416 256.908 227.391 256.926C227.234 257.035 227.08 257.147 226.922 257.255C226.326 257.659 225.709 258.031 225.074 258.37C224.775 258.529 224.474 258.682 224.168 258.827C223.993 258.91 223.816 258.99 223.639 259.069C223.76 259.015 224.164 258.867 223.586 259.089C222.902 259.351 222.212 259.593 221.508 259.796C220.802 260 220.087 260.171 219.365 260.307C219.075 260.362 218.785 260.408 218.495 260.454C219.109 260.356 217.893 260.513 217.727 260.526C216.269 260.644 214.807 260.617 213.353 260.462C212.978 260.423 213.422 260.474 213.473 260.482C213.283 260.453 213.093 260.423 212.903 260.39C212.572 260.332 212.243 260.266 211.916 260.192C211.219 260.033 210.531 259.839 209.856 259.605C209.729 259.561 208.715 259.147 209.291 259.407C208.994 259.274 208.704 259.129 208.422 258.966C208.145 258.805 207.873 258.631 207.617 258.437C208.107 258.808 207.358 258.172 207.224 258.037C206.967 257.78 206.718 257.506 206.496 257.218C206.849 257.674 206.37 256.993 206.275 256.84C206.102 256.563 205.942 256.279 205.794 255.989C205.73 255.864 205.672 255.736 205.61 255.61C205.454 255.293 205.735 256.006 205.543 255.452C205.323 254.818 205.12 254.188 204.975 253.533C204.945 253.396 204.763 252.283 204.846 252.952C204.799 252.57 204.769 252.187 204.752 251.802C204.723 251.132 204.75 250.466 204.798 249.797C204.843 249.177 204.808 249.66 204.787 249.791C204.818 249.591 204.852 249.391 204.892 249.192C204.976 248.768 205.081 248.347 205.205 247.933C205.46 247.076 205.57 246.835 205.845 246.286C206.234 245.509 206.687 244.765 207.188 244.056C207.282 243.922 207.378 243.789 207.477 243.659C207.805 243.227 207.241 243.938 207.592 243.523C207.84 243.229 208.089 242.936 208.35 242.654C208.91 242.046 209.504 241.471 210.125 240.926C210.899 240.245 210.899 240.236 211.704 239.678C212.414 239.186 213.157 238.742 213.926 238.349C214.854 237.874 214.85 237.881 215.769 237.564C216.533 237.3 217.311 237.08 218.099 236.9C218.46 236.817 218.824 236.742 219.19 236.675C219.397 236.637 219.604 236.604 219.812 236.569C219.83 236.566 220.342 236.492 220.014 236.536C219.825 236.563 220.647 236.468 220.833 236.451C221.291 236.408 221.751 236.376 222.212 236.353C224.969 236.213 227.72 236.41 230.468 236.609C231.568 236.688 232.669 236.766 233.772 236.771C235.423 236.78 237.003 235.314 236.927 233.616C236.85 231.9 235.541 230.47 233.772 230.461C231.15 230.449 228.537 230.111 225.918 230.023C222.535 229.909 219.085 230.12 215.798 230.967C208.515 232.846 201.823 238.461 199.32 245.641C197.076 252.078 199.001 260.531 205.002 264.273C207.843 266.044 211.507 266.735 214.802 266.889C218.033 267.04 221.392 266.554 224.444 265.481C227.681 264.342 230.698 262.631 233.179 260.24C235.671 257.839 237.364 254.816 238.604 251.617C240.998 245.435 241.442 238.348 240.595 231.816C238.482 215.523 227.227 203.048 216.207 191.749C211.45 186.871 206.777 181.97 202.494 176.666C202.005 176.06 201.52 175.452 201.039 174.84C200.396 174.021 200.421 174.056 199.788 173.224C198.764 171.876 197.758 170.514 196.778 169.133C194.993 166.617 193.276 164.043 191.761 161.353C191.123 160.219 190.525 159.063 190 157.872C189.311 156.313 187.036 155.949 185.683 156.741C184.077 157.68 183.86 159.492 184.551 161.057Z" fill="#263238"/>
<path d="M231.691 237.307C231.57 237.307 231.473 235.603 231.473 233.503C231.473 231.401 231.571 229.697 231.691 229.697C231.813 229.697 231.91 231.401 231.91 233.503C231.911 235.603 231.813 237.307 231.691 237.307Z" fill="#455A64"/>
<path d="M223.051 236.079C222.93 236.079 222.832 234.765 222.832 233.143C222.832 231.522 222.931 230.208 223.051 230.208C223.172 230.208 223.27 231.522 223.27 233.143C223.27 234.765 223.172 236.079 223.051 236.079Z" fill="#455A64"/>
<path d="M218.949 236.391C218.829 236.413 218.5 235.137 218.211 233.542C217.922 231.947 217.785 230.636 217.904 230.615C218.023 230.594 218.353 231.869 218.642 233.465C218.93 235.058 219.068 236.369 218.949 236.391Z" fill="#455A64"/>
<path d="M214.595 237.951C214.484 237.999 213.875 236.829 213.236 235.34C212.597 233.85 212.169 232.604 212.28 232.556C212.391 232.508 212.999 233.677 213.639 235.167C214.278 236.657 214.706 237.903 214.595 237.951Z" fill="#455A64"/>
<path d="M210.613 240.162C210.519 240.237 209.622 239.272 208.61 238.005C207.598 236.738 206.855 235.651 206.95 235.576C207.044 235.5 207.941 236.466 208.953 237.732C209.964 238.998 210.708 240.087 210.613 240.162Z" fill="#455A64"/>
<path d="M207.405 243.159C207.335 243.258 206.212 242.566 204.9 241.615C203.587 240.665 202.58 239.815 202.651 239.717C202.722 239.619 203.844 240.31 205.157 241.26C206.469 242.211 207.476 243.061 207.405 243.159Z" fill="#455A64"/>
<path d="M205.444 246.565C205.396 246.676 204.157 246.249 202.677 245.612C201.197 244.976 200.036 244.369 200.083 244.258C200.131 244.147 201.37 244.573 202.851 245.21C204.33 245.847 205.491 246.454 205.444 246.565Z" fill="#455A64"/>
<path d="M204.364 250.967C204.357 251.088 203.047 251.116 201.439 251.029C199.829 250.942 198.529 250.775 198.536 250.654C198.543 250.532 199.853 250.505 201.462 250.591C203.071 250.678 204.37 250.846 204.364 250.967Z" fill="#455A64"/>
<path d="M205.268 255.267C205.291 255.386 204.001 255.736 202.385 256.049C200.77 256.362 199.441 256.519 199.419 256.401C199.396 256.282 200.687 255.932 202.302 255.619C203.917 255.306 205.246 255.149 205.268 255.267Z" fill="#455A64"/>
<path d="M207.014 258.077C207.069 258.185 205.927 258.882 204.464 259.632C203 260.383 201.768 260.905 201.713 260.797C201.657 260.69 202.799 259.994 204.264 259.243C205.728 258.491 206.959 257.97 207.014 258.077Z" fill="#455A64"/>
<path d="M209.806 259.798C209.906 259.865 209.241 261.026 208.322 262.39C207.401 263.754 206.574 264.805 206.474 264.737C206.374 264.67 207.039 263.509 207.958 262.145C208.879 260.781 209.706 259.73 209.806 259.798Z" fill="#455A64"/>
<path d="M214.033 260.63C214.153 260.649 214.038 261.982 213.776 263.605C213.514 265.23 213.205 266.532 213.086 266.512C212.967 266.493 213.082 265.161 213.343 263.536C213.605 261.912 213.914 260.61 214.033 260.63Z" fill="#455A64"/>
<path d="M218.756 260.635C218.876 260.615 219.198 261.912 219.477 263.533C219.756 265.155 219.885 266.486 219.766 266.506C219.647 266.527 219.324 265.229 219.045 263.607C218.766 261.987 218.637 260.655 218.756 260.635Z" fill="#455A64"/>
<path d="M223.759 259.2C223.871 259.157 224.443 260.367 225.035 261.901C225.627 263.436 226.015 264.716 225.902 264.76C225.79 264.804 225.218 263.595 224.626 262.059C224.035 260.524 223.646 259.244 223.759 259.2Z" fill="#455A64"/>
<path d="M228.166 256.611C228.26 256.534 229.184 257.502 230.229 258.771C231.275 260.042 232.047 261.134 231.954 261.21C231.861 261.287 230.938 260.32 229.891 259.05C228.845 257.78 228.073 256.688 228.166 256.611Z" fill="#455A64"/>
<path d="M230.965 253.282C231.019 253.173 232.259 253.676 233.733 254.404C235.209 255.133 236.362 255.811 236.308 255.919C236.254 256.028 235.015 255.526 233.539 254.797C232.064 254.068 230.912 253.39 230.965 253.282Z" fill="#455A64"/>
<path d="M233.005 249.265C233.047 249.151 234.334 249.514 235.88 250.075C237.427 250.636 238.647 251.184 238.606 251.297C238.565 251.411 237.278 251.048 235.73 250.487C234.184 249.926 232.964 249.378 233.005 249.265Z" fill="#455A64"/>
<path d="M233.98 245.363C233.997 245.242 235.331 245.327 236.961 245.552C238.591 245.776 239.899 246.056 239.883 246.175C239.866 246.295 238.531 246.211 236.901 245.986C235.271 245.761 233.963 245.482 233.98 245.363Z" fill="#455A64"/>
<path d="M234.819 241.037C234.835 240.917 236.17 241.002 237.799 241.227C239.43 241.451 240.737 241.731 240.721 241.85C240.704 241.97 239.37 241.885 237.74 241.661C236.111 241.436 234.803 241.157 234.819 241.037Z" fill="#455A64"/>
<path d="M234.877 237.16C234.877 237.039 236.211 236.941 237.856 236.941C239.501 236.941 240.835 237.04 240.835 237.16C240.835 237.281 239.501 237.379 237.856 237.379C236.21 237.379 234.877 237.281 234.877 237.16Z" fill="#455A64"/>
<path d="M234.474 232.547C234.474 232.426 235.808 232.328 237.453 232.328C239.098 232.328 240.432 232.427 240.432 232.547C240.432 232.668 239.098 232.766 237.453 232.766C235.807 232.766 234.474 232.668 234.474 232.547Z" fill="#455A64"/>
<path d="M233.732 228.083C233.716 227.963 235.028 227.701 236.661 227.497C238.294 227.294 239.629 227.226 239.644 227.347C239.659 227.467 238.348 227.729 236.715 227.932C235.083 228.135 233.747 228.203 233.732 228.083Z" fill="#455A64"/>
<path d="M232.347 223.922C232.321 223.804 233.6 223.417 235.206 223.057C236.812 222.698 238.134 222.502 238.161 222.62C238.187 222.738 236.908 223.125 235.302 223.485C233.696 223.844 232.373 224.04 232.347 223.922Z" fill="#455A64"/>
<path d="M230.552 219.675C230.526 219.557 231.806 219.17 233.411 218.81C235.017 218.451 236.34 218.255 236.367 218.373C236.393 218.491 235.113 218.878 233.507 219.238C231.902 219.598 230.578 219.794 230.552 219.675Z" fill="#455A64"/>
<path d="M228.404 215.693C228.367 215.578 229.608 215.079 231.175 214.579C232.743 214.079 234.043 213.767 234.08 213.883C234.117 213.998 232.876 214.497 231.308 214.996C229.741 215.496 228.441 215.808 228.404 215.693Z" fill="#455A64"/>
<path d="M225.532 211.465C225.491 211.352 226.709 210.801 228.255 210.235C229.8 209.67 231.086 209.303 231.128 209.417C231.169 209.53 229.951 210.081 228.405 210.647C226.86 211.212 225.573 211.579 225.532 211.465Z" fill="#455A64"/>
<path d="M222.13 206.773C222.089 206.659 223.307 206.108 224.852 205.543C226.398 204.977 227.683 204.61 227.725 204.724C227.767 204.838 226.548 205.388 225.003 205.954C223.457 206.52 222.171 206.886 222.13 206.773Z" fill="#455A64"/>
<path d="M218.389 202.684C218.326 202.58 219.423 201.813 220.836 200.971C222.25 200.129 223.446 199.53 223.507 199.634C223.57 199.738 222.473 200.505 221.06 201.347C219.647 202.189 218.45 202.787 218.389 202.684Z" fill="#455A64"/>
<path d="M214.031 198.131C213.969 198.026 215.065 197.26 216.479 196.418C217.892 195.576 219.088 194.978 219.15 195.081C219.212 195.185 218.116 195.952 216.703 196.794C215.29 197.636 214.094 198.234 214.031 198.131Z" fill="#455A64"/>
<path d="M209.857 193.771C209.795 193.667 210.891 192.9 212.304 192.058C213.718 191.216 214.914 190.617 214.976 190.721C215.038 190.825 213.942 191.592 212.528 192.434C211.115 193.276 209.918 193.875 209.857 193.771Z" fill="#455A64"/>
<path d="M205.437 189.189C205.375 189.085 206.471 188.318 207.885 187.476C209.298 186.634 210.494 186.035 210.556 186.139C210.618 186.243 209.523 187.01 208.108 187.852C206.695 188.695 205.499 189.294 205.437 189.189Z" fill="#455A64"/>
<path d="M201.723 185.195C201.661 185.09 202.757 184.324 204.171 183.482C205.584 182.64 206.78 182.041 206.842 182.145C206.904 182.248 205.809 183.016 204.394 183.858C202.982 184.7 201.785 185.298 201.723 185.195Z" fill="#455A64"/>
<path d="M197.727 180.412C197.664 180.308 198.761 179.541 200.174 178.699C201.587 177.857 202.784 177.258 202.845 177.362C202.907 177.466 201.811 178.233 200.398 179.075C198.985 179.917 197.789 180.516 197.727 180.412Z" fill="#455A64"/>
<path d="M194.229 176.045C194.167 175.941 195.263 175.175 196.676 174.333C198.09 173.49 199.286 172.892 199.347 172.996C199.409 173.099 198.314 173.866 196.9 174.709C195.487 175.551 194.29 176.149 194.229 176.045Z" fill="#455A64"/>
<path d="M190.73 171.678C190.668 171.574 191.764 170.807 193.177 169.965C194.591 169.123 195.787 168.524 195.849 168.628C195.911 168.732 194.815 169.499 193.401 170.341C191.988 171.184 190.792 171.783 190.73 171.678Z" fill="#455A64"/>
<path d="M151.737 52.1738C151.461 50.0537 149.895 48.3728 148.522 46.7339C145.667 43.3275 143.346 39.4726 141.672 35.3552C140.6 32.7186 139.712 29.8531 137.605 27.9399C135.498 26.026 131.643 25.6844 130.113 28.0838L126.678 33.978C129.501 41.7012 132.324 49.4253 135.147 57.1485C136.217 60.0762 137.788 63.4449 140.86 63.9766C143.96 64.5133 146.583 61.8178 148.57 59.378C150.276 57.2831 152.085 54.8526 151.737 52.1738Z" fill="#263238"/>
<path d="M122.7 25.8593C116.644 24.3727 110.736 25.3368 105.689 28.9999C102.842 31.0662 102.116 32.525 100.502 34.5938C98.8874 36.6617 97.8761 39.1217 97.9569 41.744C98.052 44.8586 98.561 48.0455 100.15 50.7259C101.783 53.4795 103.429 56.2499 105.538 58.6577C107.648 61.0655 110.272 63.115 113.332 64.0572L120.673 60.3058C124.351 57.7331 128.076 55.1192 130.955 51.6757C133.834 48.2322 135.816 43.8019 135.387 39.3337C134.789 33.1274 128.756 27.3459 122.7 25.8593Z" fill="#263238"/>
<path d="M116.89 30.1585L105.647 33.2225L103.584 35.1844C98.5089 39.0259 99.2156 47.2749 102.28 51.4217C105.683 56.0287 110.021 61.5183 113.283 64.3467C119.845 70.034 126.062 66.2464 126.062 66.2464L129.358 70.8812L130.161 76.2083L141.963 90.6048L153.484 83.7658L143.31 60.1234L141.814 59.1416L139.41 56.0985L120.926 30.7634C119.94 29.5443 118.187 29.2818 116.89 30.1585Z" fill="#FFBF9D"/>
<path d="M122.269 55.1092C121.953 54.7869 121.517 54.6204 121.099 54.5934C120.265 54.5404 119.493 55.0545 119.232 55.8369C118.97 56.6193 119.237 57.6213 119.875 58.2582C120.494 58.4483 121.173 58.3802 121.723 58.0378C121.808 57.9847 121.891 57.9267 121.97 57.8636C122.354 57.559 122.652 57.1283 122.735 56.6151C122.816 56.1027 122.659 55.5071 122.269 55.1092Z" fill="#FF9A6C"/>
<path d="M108.951 55.4028C109.31 55.8605 109.993 55.9345 110.478 55.5694C110.961 55.2051 111.065 54.5388 110.707 54.0811C110.349 53.6234 109.666 53.5485 109.182 53.9128C108.697 54.278 108.594 54.9451 108.951 55.4028Z" fill="#263238"/>
<path d="M105.55 52.5448C105.747 52.5666 105.987 51.5588 106.895 50.7991C107.791 50.0276 108.848 49.9342 108.853 49.7407C108.86 49.6507 108.587 49.5421 108.12 49.5749C107.659 49.6044 107.001 49.8097 106.438 50.2859C105.877 50.7637 105.577 51.3703 105.483 51.8128C105.385 52.2612 105.457 52.5389 105.55 52.5448Z" fill="#263238"/>
<path d="M117.189 55.3927C117.151 55.338 116.505 55.714 115.495 56.3644C115.243 56.5351 114.986 56.6731 114.814 56.5478C114.619 56.4266 114.506 56.096 114.392 55.7325C114.139 54.9897 113.873 54.2114 113.594 53.3954C112.435 50.089 111.389 47.4482 111.256 47.4961C111.123 47.5441 111.955 50.2632 113.114 53.5695C113.406 54.3806 113.683 55.1537 113.949 55.8924C114.082 56.2289 114.182 56.6538 114.592 56.9011C114.8 57.0214 115.075 57.0038 115.257 56.9196C115.443 56.8405 115.575 56.7329 115.695 56.6437C116.656 55.9218 117.229 55.4465 117.189 55.3927Z" fill="#263238"/>
<path d="M126.044 66.2472C126.044 66.2472 130.699 62.8189 132.862 56.5099C132.862 56.5099 134.346 63.0284 127.26 67.9391L126.044 66.2472Z" fill="#FF9A6C"/>
<path d="M120.382 53.7774C120.228 53.8926 121.052 54.8769 120.798 56.2828C120.547 57.6894 119.406 58.4601 119.514 58.6039C119.552 58.6771 119.907 58.5989 120.36 58.2388C120.807 57.8888 121.323 57.2166 121.479 56.3568C121.633 55.497 121.373 54.7406 121.068 54.309C120.759 53.8665 120.444 53.7151 120.382 53.7774Z" fill="#263238"/>
<path d="M103.385 48.9945C103.724 49.0879 104.293 48.3568 105.16 47.7426C106.007 47.1007 106.878 46.7768 106.889 46.4285C106.886 46.2644 106.616 46.1231 106.148 46.1374C105.686 46.1483 105.034 46.346 104.445 46.7776C103.856 47.2101 103.473 47.7695 103.326 48.2062C103.173 48.6453 103.23 48.9432 103.385 48.9945Z" fill="#263238"/>
<path d="M118.889 47.205C119.262 47.6509 119.193 48.3341 118.734 48.732C118.277 49.1291 117.603 49.0921 117.231 48.647C116.857 48.2011 116.927 47.5172 117.384 47.1201C117.841 46.7213 118.515 46.7591 118.889 47.205Z" fill="#263238"/>
<path d="M118.061 42.5719C118.042 42.7688 117.005 42.7949 116.073 43.5243C115.132 44.2402 114.821 45.254 114.63 45.2187C114.541 45.2069 114.492 44.9175 114.621 44.4674C114.746 44.0223 115.084 43.4216 115.667 42.9707C116.251 42.5206 116.907 42.354 117.359 42.354C117.818 42.3515 118.075 42.4794 118.061 42.5719Z" fill="#263238"/>
<path d="M115.219 39.9714C115.201 40.3264 114.309 40.668 113.435 41.3318C112.54 41.9687 111.946 42.7208 111.604 42.6299C111.446 42.5803 111.396 42.2774 111.56 41.8273C111.72 41.3814 112.121 40.8068 112.729 40.3584C113.337 39.9117 114.003 39.7022 114.473 39.6845C114.949 39.6643 115.219 39.8048 115.219 39.9714Z" fill="#263238"/>
<path d="M128.393 43.1507C127.983 42.661 127.579 41.0331 127.999 40.5519C129.118 39.2672 131.529 37.4163 134.304 40.6722C138.097 45.1227 132.846 48.0126 132.73 47.8923C132.638 47.7972 129.808 44.8417 128.393 43.1507Z" fill="#FFBF9D"/>
<path d="M132.572 45.2195C132.58 45.1884 132.696 45.2078 132.878 45.1564C133.055 45.106 133.31 44.9587 133.467 44.6744C133.79 44.1014 133.55 43.017 132.888 42.1967C132.554 41.782 132.141 41.4681 131.725 41.2713C131.312 41.0618 130.907 41.0138 130.635 41.1737C130.353 41.3192 130.306 41.6044 130.358 41.7761C130.404 41.9519 130.508 42.0167 130.492 42.0436C130.489 42.0655 130.333 42.0503 130.212 41.8366C130.155 41.7323 130.118 41.5826 130.15 41.4084C130.183 41.2309 130.302 41.0525 130.482 40.9297C130.846 40.6613 131.424 40.7135 131.88 40.9297C132.357 41.1316 132.83 41.4757 133.206 41.941C133.942 42.8622 134.198 44.0922 133.713 44.8267C133.47 45.175 133.127 45.3037 132.904 45.3129C132.671 45.3205 132.564 45.2414 132.572 45.2195Z" fill="#FF9A6C"/>
<path d="M128.198 40.4224L127.937 42.5433C119.135 41.49 99.9111 36.7383 101.019 37.0496C101.019 37.0496 103.442 32.9717 107.736 30.7599C112.03 28.5481 120.682 25.0281 123.945 29.6006C127.207 34.174 128.198 40.4224 128.198 40.4224Z" fill="#263238"/>
<path opacity="0.3" d="M292.747 198.737H240.167V203.523H292.747V198.737Z" fill="black"/>
<path d="M292.747 198.737H240.167V239.373H292.747V198.737Z" fill="#E0E0E0"/>
<path opacity="0.3" d="M292.747 198.737H240.167V203.523H292.747V198.737Z" fill="black"/>
<path d="M289.278 177.6V173.488C289.278 170.434 286.802 167.958 283.748 167.958H253.389C253.389 167.958 242.854 179.564 242.676 180.457C242.497 181.349 238.212 198.737 238.212 198.737H240.166H294.812V185.475C294.812 182.896 293.533 180.483 291.398 179.036L289.278 177.6ZM284.867 175.503H270.871L265.865 171.065H282.024C283.594 171.065 284.867 172.338 284.867 173.909V175.503Z" fill="#FFEF5E"/>
<path d="M247.458 257.001C250.293 257.001 252.592 254.702 252.592 251.866C252.592 249.03 250.293 246.731 247.458 246.731C244.622 246.731 242.323 249.03 242.323 251.866C242.323 254.702 244.622 257.001 247.458 257.001Z" fill="#263238"/>
<path d="M283.556 257.001C286.391 257.001 288.69 254.702 288.69 251.866C288.69 249.03 286.391 246.731 283.556 246.731C280.72 246.731 278.421 249.03 278.421 251.866C278.421 254.702 280.72 257.001 283.556 257.001Z" fill="#263238"/>
<path d="M294.483 239.373H238.212V247.675H294.483V239.373Z" fill="#FFEF5E"/>
<path d="M186.247 116.427C187.062 117.513 194.395 131.973 193.037 140.087C191.679 148.201 181.969 157.101 178.423 164.158C175.02 170.932 159.633 191.294 159.089 198.943C158.546 206.592 151.756 229.405 146.053 245.427L144.62 249.293L130.573 247.328C130.573 247.328 136.548 225.33 138.449 216.368C140.35 207.405 138.577 205.76 140.078 198.942C141.579 192.125 146.705 174.419 146.705 174.419L159.361 136.252L157.836 123.216L186.247 116.427Z" fill="#263238"/>
<path d="M189.624 118.836C189.624 118.836 197.161 127.757 197.364 138.267C197.568 148.778 193.524 151.425 193.204 159.776C192.884 168.127 189.217 178.107 190.439 187.884C191.662 197.661 197.176 199.698 197.372 211.512C197.568 223.325 194.644 246.748 194.644 246.748L182.365 246.449C182.365 246.449 179.694 218.378 179.898 215.73C180.101 213.082 179.279 209.482 176.224 201.538C173.168 193.594 171.496 191.551 171.7 181.57C171.904 171.59 175.366 129.775 175.366 129.775L176.996 118.836H189.624Z" fill="#263238"/>
<path d="M175.236 173.37C175.223 173.363 175.295 173.194 175.445 172.879C175.622 172.524 175.848 172.071 176.128 171.512C176.734 170.331 177.631 168.633 178.801 166.569C179.974 164.507 181.409 162.069 183.167 159.463C184.877 156.809 187.264 154.285 189.178 151.237C191.117 148.211 192.729 145.132 193.563 142.14C194.382 139.141 194.573 136.299 194.407 133.956C194.249 131.605 193.696 129.753 193.147 128.561C192.584 127.371 192.094 126.811 192.14 126.778C192.14 126.778 192.68 127.299 193.301 128.487C193.907 129.676 194.516 131.549 194.716 133.933C194.924 136.309 194.765 139.188 193.953 142.247C193.121 145.312 191.504 148.421 189.547 151.476C187.604 154.565 185.208 157.079 183.502 159.691C181.735 162.271 180.275 164.687 179.07 166.724C177.868 168.766 176.93 170.439 176.278 171.593C175.97 172.137 175.72 172.577 175.525 172.921C175.348 173.222 175.249 173.377 175.236 173.37Z" fill="#455A64"/>
<path d="M182.151 236.732L182.77 249.608C182.77 249.608 170.087 254.571 169.974 256.962L194.607 256.639L194.453 236.537L182.151 236.732Z" fill="#263238"/>
<path d="M190.373 248.424C190.852 248.55 191.187 249.09 191.083 249.581C190.979 250.072 190.441 250.423 189.96 250.305C189.479 250.188 189.056 249.552 189.214 249.077C189.373 248.602 190.026 248.223 190.465 248.455" fill="#E0E0E0"/>
<path d="M194.606 256.639L194.513 254.614L170.93 255.68C170.93 255.68 169.84 256.178 169.974 256.961L194.606 256.639Z" fill="#455A64"/>
<path d="M182.369 249.485C182.375 249.607 182.976 249.655 183.574 250.039C184.18 250.409 184.492 250.934 184.603 250.883C184.713 250.858 184.524 250.13 183.794 249.677C183.067 249.218 182.342 249.373 182.369 249.485Z" fill="white"/>
<path d="M179.799 250.604C179.773 250.723 180.296 250.924 180.712 251.435C181.142 251.934 181.252 252.491 181.372 252.484C181.485 252.502 181.559 251.786 181.031 251.16C180.508 250.529 179.8 250.488 179.799 250.604Z" fill="white"/>
<path d="M178.372 253.763C178.481 253.788 178.641 253.175 178.324 252.51C178.011 251.843 177.44 251.587 177.391 251.689C177.324 251.791 177.694 252.144 177.946 252.695C178.211 253.237 178.251 253.752 178.372 253.763Z" fill="white"/>
<path d="M135.537 236.159L131.495 249.319C131.495 249.319 118.307 254.48 118.188 256.966L143.801 256.631L143.756 250.65L146.985 238.03L135.537 236.159Z" fill="#263238"/>
<path d="M143.802 256.631L143.787 254.633L119.184 255.633C119.184 255.633 118.05 256.152 118.189 256.966L143.802 256.631Z" fill="#455A64"/>
<path d="M131.411 249.401C131.417 249.529 132.043 249.578 132.664 249.978C133.295 250.361 133.619 250.907 133.733 250.855C133.848 250.829 133.652 250.073 132.892 249.601C132.137 249.124 131.383 249.285 131.411 249.401Z" fill="white"/>
<path d="M128.5 250.596C128.474 250.72 129.018 250.929 129.45 251.46C129.896 251.979 130.011 252.558 130.135 252.551C130.253 252.569 130.33 251.825 129.781 251.174C129.238 250.519 128.501 250.475 128.5 250.596Z" fill="white"/>
<path d="M126.85 253.935C126.965 253.961 127.131 253.324 126.801 252.633C126.475 251.939 125.882 251.672 125.831 251.779C125.761 251.884 126.145 252.253 126.408 252.824C126.684 253.389 126.726 253.924 126.85 253.935Z" fill="white"/>
<path d="M193.736 155.804C193.766 155.808 193.749 156.142 193.694 156.743C193.64 157.345 193.54 158.213 193.402 159.284C193.128 161.426 192.681 164.374 192.147 167.622C191.616 170.818 191.136 173.706 190.766 175.936C190.597 176.926 190.454 177.766 190.337 178.454C190.229 179.048 190.156 179.375 190.125 179.371C190.095 179.368 190.112 179.033 190.168 178.431C190.221 177.83 190.322 176.962 190.459 175.892C190.732 173.75 191.18 170.801 191.714 167.553C192.245 164.359 192.724 161.471 193.095 159.24C193.264 158.251 193.407 157.411 193.524 156.722C193.632 156.126 193.705 155.799 193.736 155.804Z" fill="#455A64"/>
<path d="M142.536 57.5244C142.536 57.5244 152.205 57.7179 158.972 64.4854C165.74 71.2529 182.005 97.9375 182.284 101.999C182.562 106.06 182.284 109.153 182.284 109.153L191.457 118.836C191.457 118.836 184.883 122.689 177.535 122.689C170.187 122.689 156.072 118.836 156.072 118.836L152.205 110.699L133.061 96.7774C133.061 96.7774 126.874 79.1814 129 73.1871C131.127 67.1928 142.536 57.5244 142.536 57.5244Z" fill="#455A64"/>
<path d="M239.919 229.089H231.691V238.143H239.919V229.089Z" fill="#263238"/>
<path d="M142.536 57.5245L139.409 56.0976L129.519 68.9049L129.687 73.8535L142.536 57.5245Z" fill="#455A64"/>
<path d="M141.529 56.7656C141.579 56.7934 141.22 57.5699 140.547 58.7764C139.875 59.9828 138.876 61.6124 137.662 63.3363C136.447 65.0601 135.248 66.5484 134.337 67.5874C133.427 68.6273 132.817 69.2254 132.774 69.1876C132.726 69.1455 133.254 68.475 134.099 67.3897C134.944 66.3052 136.096 64.7959 137.305 63.083C138.511 61.3693 139.544 59.7775 140.282 58.6165C141.019 57.4564 141.473 56.7345 141.529 56.7656Z" fill="#263238"/>
<path d="M150.942 116.427C150.67 117.513 155.346 134.697 155.346 134.697L141.165 193.556C141.165 193.556 149.04 200.889 169.137 198.445C169.137 198.445 181.63 149.56 182.174 137.068C182.717 124.575 181.087 116.428 181.087 116.428L177.828 109.639C177.828 109.639 161.262 109.639 153.386 106.651C145.511 103.664 137.363 96.8742 137.363 96.8742L129.216 77.5922L128.894 80.6092L129.519 94.9644L150.942 116.427Z" fill="#FFEF5E"/>
<path d="M177.828 109.638L182.284 109.153L184.534 111.528L180.489 116.427L177.828 109.638Z" fill="#FFEF5E"/>
<path d="M182.588 111.226C182.574 111.222 182.6 111.098 182.664 110.866C182.726 110.634 182.825 110.293 182.986 109.865C183.297 109.008 183.826 107.785 184.695 106.394C185.566 105.008 186.792 103.461 188.43 102.031C189.247 101.315 190.168 100.634 191.184 100.028C191.687 99.7255 192.238 99.4176 192.881 99.2922C193.518 99.1669 194.26 99.2754 194.792 99.7718C195.334 100.287 195.388 101.089 195.193 101.703C194.993 102.344 194.576 102.836 194.173 103.267C193.356 104.12 192.528 104.896 191.7 105.594C190.047 106.993 188.415 108.069 186.996 108.877C185.572 109.68 184.364 110.22 183.516 110.557C183.094 110.729 182.759 110.846 182.531 110.92C182.303 110.995 182.181 111.028 182.175 111.013C182.162 110.979 182.627 110.786 183.448 110.401C184.27 110.017 185.449 109.438 186.839 108.61C188.224 107.774 189.819 106.685 191.436 105.286C192.246 104.59 193.061 103.815 193.859 102.974C194.248 102.556 194.615 102.102 194.775 101.577C194.935 101.059 194.874 100.447 194.487 100.087C194.103 99.7221 193.495 99.6119 192.961 99.7196C192.412 99.8239 191.897 100.1 191.403 100.396C190.407 100.983 189.5 101.643 188.693 102.335C187.074 103.72 185.844 105.217 184.954 106.56C184.066 107.908 183.5 109.095 183.143 109.926C182.784 110.759 182.627 111.239 182.588 111.226Z" fill="#FFEF5E"/>
<path d="M182.874 111.486C182.861 111.494 182.776 111.37 182.626 111.127C182.475 110.885 182.265 110.519 182.008 110.042C181.495 109.086 180.801 107.672 180.122 105.85C179.444 104.029 178.77 101.807 178.346 99.2602C178.15 97.9865 178.055 96.6034 178.323 95.1933C178.469 94.4984 178.676 93.7825 179.082 93.138C179.478 92.5079 180.05 91.9088 180.844 91.6682C181.641 91.415 182.532 91.7338 183.054 92.3051C183.594 92.8696 183.892 93.5645 184.108 94.2426C184.485 95.619 184.677 96.9508 184.788 98.2406C185.005 100.816 184.761 103.149 184.381 105.055C183.989 106.964 183.446 108.451 183.023 109.45C182.814 109.952 182.628 110.33 182.493 110.583C182.362 110.837 182.287 110.966 182.273 110.959C182.234 110.941 182.493 110.401 182.864 109.387C183.236 108.376 183.727 106.889 184.076 104.996C184.412 103.106 184.62 100.806 184.385 98.2742C184.267 97.0164 184.061 95.6788 183.696 94.3714C183.491 93.7311 183.203 93.0884 182.741 92.6096C182.291 92.1293 181.601 91.892 180.965 92.0889C180.328 92.2782 179.809 92.7956 179.449 93.3694C179.083 93.9457 178.885 94.6137 178.743 95.2758C178.482 96.6101 178.563 97.9494 178.744 99.1996C179.139 101.708 179.777 103.927 180.412 105.744C181.049 107.565 181.695 108.989 182.158 109.964C182.626 110.939 182.905 111.469 182.874 111.486Z" fill="#FFEF5E"/>
<path d="M167.911 115.073C167.922 115.193 164.146 115.646 159.478 116.085C154.809 116.523 151.016 116.781 151.004 116.661C150.993 116.541 154.768 116.087 159.437 115.649C164.106 115.211 167.9 114.952 167.911 115.073Z" fill="#263238"/>
<path d="M294.251 198.737C294.251 198.859 281.743 198.956 266.317 198.956C250.886 198.956 238.38 198.858 238.38 198.737C238.38 198.616 250.885 198.519 266.317 198.519C281.743 198.518 294.251 198.616 294.251 198.737Z" fill="#263238"/>
<path d="M285.258 175.503C285.258 175.624 278.52 175.722 270.21 175.722C261.897 175.722 255.161 175.623 255.161 175.503C255.161 175.382 261.897 175.284 270.21 175.284C278.52 175.284 285.258 175.383 285.258 175.503Z" fill="#263238"/>
<path opacity="0.3" d="M242.676 180.457C242.676 180.457 276.613 194.91 276.139 194.91C275.666 194.91 238.746 194.91 238.746 194.91L242.676 180.457Z" fill="black"/>
<path d="M127.809 92.56C127.667 92.597 125.134 118.836 125.134 118.836L117.013 142.218L123.394 150.533C123.394 150.533 134.816 129.493 136.259 121.546C137.703 113.6 143.311 90.1059 143.311 90.1059L134.996 85.175L127.809 92.56Z" fill="#FFBF9D"/>
<path d="M136.542 68.4842C135.777 68.602 129.582 70.4193 128.555 75.2517C127.528 80.0842 126.499 93.0412 126.499 93.0412C126.499 93.0412 141.956 91.0095 143.309 92.4599C144.663 93.9103 146.017 77.7218 146.017 77.7218C146.017 77.7218 141.786 67.6749 136.542 68.4842Z" fill="#455A64"/>
<path d="M117.012 139.482C117.012 140.255 106.377 165.616 106.183 167.744C105.99 169.87 101.543 176.639 103.476 178.572C105.409 180.505 108.841 171.418 108.841 171.418C108.841 171.418 109.664 174.125 112.178 173.544C114.691 172.964 113.918 171.224 113.918 171.224C113.918 171.224 116.402 170.064 118.447 168.131C120.492 166.197 120.846 158.513 120.846 157.411C120.846 156.31 127.145 144.536 127.145 144.536C122.294 145.133 120.191 143.933 117.012 139.482Z" fill="#455A64"/>
<path d="M112.481 166.951C112.543 166.953 112.579 167.256 112.612 167.733C112.649 168.209 112.683 168.866 112.903 169.525C113.123 170.177 113.538 170.673 113.901 170.932C114.264 171.2 114.56 171.261 114.549 171.329C114.55 171.379 114.212 171.433 113.739 171.196C113.271 170.968 112.741 170.418 112.487 169.665C112.239 168.918 112.26 168.215 112.301 167.731C112.349 167.243 112.422 166.949 112.481 166.951Z" fill="#263238"/>
<path d="M117.191 167.142C117.248 167.16 117.272 167.27 117.255 167.436C117.246 167.518 117.227 167.615 117.198 167.717C117.179 167.777 117.164 167.827 117.152 167.867C117.135 167.904 117.141 167.968 117.132 167.892C117.092 167.827 117.127 167.88 117.163 167.899C117.198 167.923 117.241 167.952 117.293 167.988C117.379 168.05 117.454 168.113 117.512 168.173C117.628 168.291 117.68 168.392 117.646 168.442C117.612 168.492 117.501 168.484 117.35 168.437C117.274 168.413 117.188 168.381 117.093 168.34C117.046 168.32 116.996 168.296 116.939 168.266C116.885 168.222 116.804 168.22 116.718 168.038C116.672 167.843 116.733 167.791 116.748 167.722C116.774 167.664 116.798 167.613 116.822 167.568C116.871 167.476 116.918 167.398 116.963 167.332C117.052 167.2 117.133 167.123 117.191 167.142Z" fill="#263238"/>
<path d="M147.357 70.956C147.282 71.0174 146.7 69.938 145.148 68.8654C143.635 67.7935 141.032 66.8698 138.192 67.2955C135.35 67.7355 133.102 69.2616 131.726 70.5211C130.329 71.794 129.669 72.7867 129.604 72.7362C129.582 72.7211 129.724 72.4603 130.032 72.0203C130.339 71.5803 130.828 70.972 131.514 70.2947C132.862 68.9529 135.159 67.3224 138.127 66.8614C141.103 66.4155 143.808 67.436 145.328 68.613C146.103 69.1985 146.633 69.7883 146.94 70.2308C147.251 70.6733 147.378 70.9442 147.357 70.956Z" fill="#263238"/>
<path d="M146.246 80.1381C146.303 80.1364 146.38 80.7489 146.391 81.7458C146.402 82.7411 146.329 84.1208 146.096 85.6251C145.861 87.1294 145.511 88.4662 145.198 89.411C144.886 90.3575 144.626 90.9169 144.572 90.8984C144.446 90.8564 145.208 88.5276 145.663 85.5578C146.133 82.5905 146.114 80.1406 146.246 80.1381Z" fill="#263238"/>
<path d="M151.649 120.319C151.654 120.347 142.496 135.102 141.24 137.057C139.984 139.011 138.727 141.931 141.24 142.495C143.753 143.059 143.753 140.546 144.869 138.313C145.987 136.079 149.413 136.498 151.329 134.404C153.246 132.31 154.392 130.216 154.392 130.216C154.392 130.216 151.547 119.722 151.649 120.319Z" fill="#455A64"/>
</svg>
