<svg width="225" height="116" viewBox="0 0 225 116" fill="none" xmlns="http://www.w3.org/2000/svg">
<g filter="url(#filter0_d_1_3857)">
<path fill-rule="evenodd" clip-rule="evenodd" d="M25.0625 0C12.8777 0 3 9.87774 3 22.0625V53.8043V55.2643V110C4.16573 99.303 10.2316 79.2516 21.9387 77.1073C22.9592 77.252 24.0021 77.3268 25.0625 77.3268H199.938C212.122 77.3268 222 67.4491 222 55.2643V22.0625C222 9.87772 212.122 0 199.938 0H25.0625Z" fill="url(#paint0_linear_1_3857)" shape-rendering="crispEdges"/>
</g>
<path d="M28.056 44.3907C27.468 44.3907 26.874 44.3067 26.274 44.1387C25.674 43.9587 25.098 43.6947 24.546 43.3467C23.994 42.9867 23.502 42.5487 23.07 42.0327C22.65 41.5047 22.314 40.8987 22.062 40.2147C21.81 39.5187 21.684 38.7507 21.684 37.9107C21.684 37.0827 21.81 36.3387 22.062 35.6787C22.314 35.0067 22.65 34.4187 23.07 33.9147C23.502 33.4107 23.988 32.9907 24.528 32.6547C25.08 32.3187 25.656 32.0667 26.256 31.8987C26.868 31.7187 27.474 31.6227 28.074 31.6107C28.686 31.6107 29.214 31.6767 29.658 31.8087C30.102 31.9407 30.462 32.0847 30.738 32.2407C31.014 32.3847 31.2 32.4867 31.296 32.5467C31.488 32.6667 31.668 32.8047 31.836 32.9607C32.016 33.1047 32.112 33.2847 32.124 33.5007C32.136 33.6447 32.118 33.7767 32.07 33.8967C32.022 34.0047 31.956 34.1187 31.872 34.2387C31.728 34.4427 31.584 34.5927 31.44 34.6887C31.296 34.7847 31.152 34.8327 31.008 34.8327C30.876 34.8327 30.75 34.7967 30.63 34.7247C30.522 34.6527 30.384 34.5627 30.216 34.4547C30.144 34.4067 30.012 34.3347 29.82 34.2387C29.64 34.1307 29.394 34.0347 29.082 33.9507C28.782 33.8667 28.416 33.8247 27.984 33.8247C27.468 33.8247 26.964 33.9147 26.472 34.0947C25.98 34.2747 25.536 34.5447 25.14 34.9047C24.756 35.2527 24.45 35.6907 24.222 36.2187C23.994 36.7347 23.88 37.3287 23.88 38.0007C23.88 38.6727 23.994 39.2727 24.222 39.8007C24.45 40.3167 24.756 40.7547 25.14 41.1147C25.536 41.4627 25.98 41.7267 26.472 41.9067C26.964 42.0867 27.468 42.1767 27.984 42.1767C28.392 42.1767 28.74 42.1407 29.028 42.0687C29.328 41.9847 29.58 41.8887 29.784 41.7807C30 41.6607 30.162 41.5707 30.27 41.5107C30.402 41.4267 30.528 41.3487 30.648 41.2767C30.768 41.2047 30.894 41.1687 31.026 41.1687C31.17 41.1687 31.308 41.2167 31.44 41.3127C31.584 41.4087 31.722 41.5647 31.854 41.7807C31.938 41.9127 32.004 42.0387 32.052 42.1587C32.1 42.2787 32.118 42.4047 32.106 42.5367C32.094 42.7527 31.998 42.9387 31.818 43.0947C31.65 43.2387 31.47 43.3647 31.278 43.4727C31.182 43.5327 30.996 43.6407 30.72 43.7967C30.456 43.9407 30.102 44.0727 29.658 44.1927C29.214 44.3247 28.68 44.3907 28.056 44.3907ZM36.8269 44.3187C36.3829 44.3187 35.9869 44.2887 35.6389 44.2287C35.3029 44.1687 35.0089 44.0667 34.7569 43.9227C34.5169 43.7787 34.3189 43.5867 34.1629 43.3467C34.0069 43.0947 33.8869 42.7887 33.8029 42.4287C33.7309 42.0687 33.6949 41.6367 33.6949 41.1327V32.4567C33.6949 32.2527 33.7129 32.0727 33.7489 31.9167C33.7969 31.7487 33.8929 31.6167 34.0369 31.5207C34.1929 31.4127 34.4389 31.3587 34.7749 31.3587C35.1109 31.3587 35.3509 31.4067 35.4949 31.5027C35.6509 31.5987 35.7469 31.7307 35.7829 31.8987C35.8309 32.0547 35.8549 32.2347 35.8549 32.4387V41.0427C35.8549 41.2707 35.8669 41.4627 35.8909 41.6187C35.9269 41.7627 35.9809 41.8827 36.0529 41.9787C36.1369 42.0627 36.2389 42.1227 36.3589 42.1587C36.4909 42.1947 36.6469 42.2127 36.8269 42.2127C36.9829 42.2127 37.1209 42.2307 37.2409 42.2667C37.3729 42.3027 37.4749 42.3927 37.5469 42.5367C37.6309 42.6807 37.6729 42.9147 37.6729 43.2387C37.6729 43.5747 37.6309 43.8207 37.5469 43.9767C37.4749 44.1327 37.3729 44.2287 37.2409 44.2647C37.1089 44.3007 36.9709 44.3187 36.8269 44.3187ZM43.2532 44.4267C42.4732 44.4267 41.7892 44.3007 41.2012 44.0487C40.6252 43.7967 40.1392 43.4547 39.7432 43.0227C39.3592 42.5787 39.0652 42.0867 38.8612 41.5467C38.6692 40.9947 38.5732 40.4247 38.5732 39.8367C38.5732 38.9727 38.7712 38.2047 39.1672 37.5327C39.5632 36.8607 40.1092 36.3327 40.8052 35.9487C41.5132 35.5647 42.3232 35.3727 43.2352 35.3727C43.8832 35.3727 44.4532 35.4747 44.9452 35.6787C45.4372 35.8827 45.8452 36.1527 46.1692 36.4887C46.5052 36.8127 46.7572 37.1727 46.9252 37.5687C47.1052 37.9647 47.1952 38.3487 47.1952 38.7207C47.1952 39.3567 47.0392 39.8187 46.7272 40.1067C46.4272 40.3947 46.0492 40.5387 45.5932 40.5387H40.8412C40.8532 40.9467 40.9792 41.3007 41.2192 41.6007C41.4712 41.9007 41.7832 42.1347 42.1552 42.3027C42.5392 42.4587 42.9292 42.5367 43.3252 42.5367C43.6252 42.5367 43.8892 42.5187 44.1172 42.4827C44.3572 42.4467 44.5612 42.4047 44.7292 42.3567C44.8972 42.2967 45.0412 42.2367 45.1612 42.1767C45.2932 42.1167 45.4132 42.0627 45.5212 42.0147C45.6292 41.9667 45.7312 41.9367 45.8272 41.9247C45.9592 41.9127 46.0912 41.9427 46.2232 42.0147C46.3552 42.0867 46.4632 42.2127 46.5472 42.3927C46.6192 42.5127 46.6672 42.6267 46.6912 42.7347C46.7272 42.8307 46.7452 42.9267 46.7452 43.0227C46.7452 43.2627 46.6012 43.4907 46.3132 43.7067C46.0252 43.9107 45.6172 44.0787 45.0892 44.2107C44.5732 44.3547 43.9612 44.4267 43.2532 44.4267ZM40.8412 39.2607H44.5312C44.7352 39.2607 44.8912 39.2307 44.9992 39.1707C45.1072 39.0987 45.1612 38.9547 45.1612 38.7387C45.1612 38.4627 45.0772 38.2167 44.9092 38.0007C44.7412 37.7727 44.5132 37.5987 44.2252 37.4787C43.9372 37.3467 43.6012 37.2807 43.2172 37.2807C42.7732 37.2807 42.3712 37.3707 42.0112 37.5507C41.6512 37.7187 41.3632 37.9527 41.1472 38.2527C40.9432 38.5527 40.8412 38.8887 40.8412 39.2607ZM56.0523 44.2827C55.7043 44.2827 55.4463 44.2167 55.2783 44.0847C55.1103 43.9527 55.0263 43.7727 55.0263 43.5447L55.1523 42.9507C55.0563 43.1067 54.8943 43.2927 54.6663 43.5087C54.4383 43.7127 54.1383 43.8987 53.7663 44.0667C53.3943 44.2227 52.9443 44.3007 52.4163 44.3007C51.8523 44.3007 51.3183 44.1867 50.8143 43.9587C50.3223 43.7187 49.8843 43.3947 49.5003 42.9867C49.1283 42.5667 48.8283 42.0927 48.6003 41.5647C48.3843 41.0247 48.2763 40.4487 48.2763 39.8367C48.2763 39.2487 48.3843 38.6967 48.6003 38.1807C48.8283 37.6527 49.1343 37.1847 49.5183 36.7767C49.9023 36.3687 50.3403 36.0507 50.8323 35.8227C51.3363 35.5827 51.8643 35.4627 52.4163 35.4627C52.9083 35.4627 53.3223 35.5287 53.6583 35.6607C54.0063 35.7927 54.3003 35.9607 54.5403 36.1647C54.7803 36.3567 54.9783 36.5607 55.1343 36.7767L55.0263 36.2547C55.0263 35.9907 55.1103 35.7927 55.2783 35.6607C55.4463 35.5167 55.7103 35.4447 56.0703 35.4447C56.4063 35.4447 56.6463 35.4987 56.7903 35.6067C56.9343 35.7027 57.0243 35.8407 57.0603 36.0207C57.0963 36.1887 57.1143 36.3807 57.1143 36.5967V43.1847C57.1143 43.3887 57.0963 43.5747 57.0603 43.7427C57.0243 43.9107 56.9283 44.0427 56.7723 44.1387C56.6283 44.2347 56.3883 44.2827 56.0523 44.2827ZM52.7403 42.1947C53.1483 42.1947 53.5143 42.0927 53.8383 41.8887C54.1623 41.6847 54.4203 41.4087 54.6123 41.0607C54.8163 40.7007 54.9183 40.3047 54.9183 39.8727C54.9183 39.4047 54.8163 38.9967 54.6123 38.6487C54.4083 38.3007 54.1383 38.0307 53.8023 37.8387C53.4783 37.6347 53.1123 37.5327 52.7043 37.5327C52.2603 37.5327 51.8643 37.6407 51.5163 37.8567C51.1683 38.0607 50.8923 38.3427 50.6883 38.7027C50.4963 39.0507 50.4003 39.4467 50.4003 39.8907C50.4003 40.3227 50.5023 40.7127 50.7063 41.0607C50.9103 41.4087 51.1863 41.6847 51.5343 41.8887C51.8943 42.0927 52.2963 42.1947 52.7403 42.1947ZM59.9824 44.3007C59.6584 44.3007 59.4184 44.2467 59.2624 44.1387C59.1184 44.0427 59.0284 43.9167 58.9924 43.7607C58.9564 43.5927 58.9384 43.4067 58.9384 43.2027V36.4707C58.9384 36.2787 58.9564 36.1047 58.9924 35.9487C59.0284 35.7927 59.1244 35.6727 59.2804 35.5887C59.4364 35.4927 59.6764 35.4447 60.0004 35.4447C60.2884 35.4447 60.5044 35.4807 60.6484 35.5527C60.7924 35.6247 60.8884 35.7147 60.9364 35.8227C60.9844 35.9307 61.0084 36.0387 61.0084 36.1467C61.0204 36.2547 61.0324 36.3387 61.0444 36.3987L60.9724 36.9747C61.0444 36.7827 61.1644 36.5967 61.3324 36.4167C61.5004 36.2367 61.7044 36.0747 61.9444 35.9307C62.1844 35.7747 62.4424 35.6547 62.7184 35.5707C63.0064 35.4747 63.3004 35.4267 63.6004 35.4267C64.1644 35.4267 64.6684 35.5287 65.1124 35.7327C65.5564 35.9367 65.9344 36.2247 66.2464 36.5967C66.5704 36.9687 66.8164 37.4127 66.9844 37.9287C67.1524 38.4327 67.2364 39.0027 67.2364 39.6387V43.2207C67.2364 43.4247 67.2124 43.6107 67.1644 43.7787C67.1284 43.9347 67.0384 44.0607 66.8944 44.1567C66.7504 44.2527 66.5044 44.3007 66.1564 44.3007C65.8204 44.3007 65.5744 44.2467 65.4184 44.1387C65.2624 44.0427 65.1664 43.9167 65.1304 43.7607C65.0944 43.5927 65.0764 43.4067 65.0764 43.2027V39.6207C65.0764 39.1887 64.9984 38.8167 64.8424 38.5047C64.6984 38.1927 64.4824 37.9527 64.1944 37.7847C63.9184 37.6167 63.5644 37.5327 63.1324 37.5327C62.7124 37.5327 62.3464 37.6227 62.0344 37.8027C61.7224 37.9707 61.4824 38.2107 61.3144 38.5227C61.1464 38.8347 61.0624 39.2007 61.0624 39.6207V43.2207C61.0624 43.4247 61.0444 43.6107 61.0084 43.7787C60.9724 43.9347 60.8764 44.0607 60.7204 44.1567C60.5764 44.2527 60.3304 44.3007 59.9824 44.3007ZM74.5015 44.3007C74.1775 44.3007 73.9375 44.2527 73.7815 44.1567C73.6375 44.0607 73.5475 43.9287 73.5115 43.7607C73.4755 43.5927 73.4575 43.4127 73.4575 43.2207V36.4887C73.4575 36.2967 73.4755 36.1227 73.5115 35.9667C73.5475 35.8107 73.6435 35.6847 73.7995 35.5887C73.9555 35.4927 74.2015 35.4447 74.5375 35.4447C74.8855 35.4447 75.1375 35.5167 75.2935 35.6607C75.4615 35.8047 75.5455 36.0327 75.5455 36.3447L75.3835 36.8487C75.4435 36.7167 75.5455 36.5727 75.6895 36.4167C75.8335 36.2607 76.0075 36.1047 76.2115 35.9487C76.4275 35.7927 76.6675 35.6667 76.9315 35.5707C77.1955 35.4747 77.4715 35.4267 77.7595 35.4267C78.1555 35.4267 78.5155 35.4927 78.8395 35.6247C79.1755 35.7567 79.4695 35.9487 79.7215 36.2007C79.9855 36.4527 80.2135 36.7587 80.4055 37.1187C80.6095 36.8067 80.8375 36.5247 81.0895 36.2727C81.3415 36.0087 81.6355 35.8047 81.9715 35.6607C82.3075 35.5047 82.6855 35.4267 83.1055 35.4267C83.8015 35.4267 84.3835 35.6007 84.8515 35.9487C85.3315 36.2967 85.6915 36.7947 85.9315 37.4427C86.1835 38.0787 86.3095 38.8407 86.3095 39.7287V43.2207C86.3095 43.4247 86.2855 43.6107 86.2375 43.7787C86.2015 43.9347 86.1055 44.0607 85.9495 44.1567C85.8055 44.2527 85.5655 44.3007 85.2295 44.3007C84.8935 44.3007 84.6475 44.2467 84.4915 44.1387C84.3355 44.0427 84.2395 43.9167 84.2035 43.7607C84.1675 43.5927 84.1495 43.4067 84.1495 43.2027V39.7107C84.1495 39.2667 84.0955 38.8827 83.9875 38.5587C83.8795 38.2347 83.7175 37.9827 83.5015 37.8027C83.2975 37.6227 83.0275 37.5327 82.6915 37.5327C82.3315 37.5327 82.0195 37.6227 81.7555 37.8027C81.5035 37.9707 81.3055 38.2167 81.1615 38.5407C81.0175 38.8647 80.9455 39.2607 80.9455 39.7287V43.2387C80.9455 43.4427 80.9155 43.6347 80.8555 43.8147C80.7955 43.9827 80.6755 44.1087 80.4955 44.1927C80.3275 44.2887 80.0815 44.3247 79.7575 44.3007C79.4575 44.2887 79.2355 44.2287 79.0915 44.1207C78.9595 44.0127 78.8755 43.8807 78.8395 43.7247C78.8155 43.5567 78.8035 43.3827 78.8035 43.2027V39.7107C78.8035 39.2667 78.7495 38.8827 78.6415 38.5587C78.5335 38.2227 78.3715 37.9707 78.1555 37.8027C77.9515 37.6227 77.6755 37.5327 77.3275 37.5327C76.9555 37.5327 76.6375 37.6287 76.3735 37.8207C76.1215 38.0127 75.9295 38.2707 75.7975 38.5947C75.6655 38.9187 75.5995 39.2907 75.5995 39.7107V43.2387C75.5995 43.4307 75.5755 43.6107 75.5275 43.7787C75.4915 43.9467 75.3955 44.0727 75.2395 44.1567C75.0955 44.2527 74.8495 44.3007 74.5015 44.3007ZM89.8047 47.8647C89.4207 47.6967 89.1987 47.5047 89.1387 47.2887C89.0787 47.0847 89.1327 46.8087 89.3007 46.4607L93.9447 36.0567C94.1127 35.6727 94.2927 35.4447 94.4847 35.3727C94.6767 35.2887 94.9707 35.3307 95.3667 35.4987C95.7387 35.6667 95.9547 35.8527 96.0147 36.0567C96.0867 36.2607 96.0447 36.5367 95.8887 36.8847L91.2087 47.3427C91.0527 47.7267 90.8787 47.9487 90.6867 48.0087C90.4947 48.0807 90.2007 48.0327 89.8047 47.8647ZM91.4787 43.4547L87.3207 37.0647C87.1047 36.7407 87.0147 36.4707 87.0507 36.2547C87.0987 36.0387 87.2907 35.8287 87.6267 35.6247C87.9987 35.3967 88.2867 35.3067 88.4907 35.3547C88.7067 35.4027 88.9227 35.5947 89.1387 35.9307L92.4327 41.0607L91.4787 43.4547ZM102.873 38.3427C102.417 38.3427 102.099 38.2527 101.919 38.0727C101.739 37.8927 101.649 37.5867 101.649 37.1547C101.649 36.8427 101.685 36.5967 101.757 36.4167C101.841 36.2367 101.973 36.1107 102.153 36.0387C102.333 35.9547 102.573 35.9127 102.873 35.9127C103.329 35.9127 103.641 36.0027 103.809 36.1827C103.989 36.3627 104.079 36.6807 104.079 37.1367C104.079 37.4247 104.043 37.6587 103.971 37.8387C103.899 38.0187 103.773 38.1507 103.593 38.2347C103.413 38.3067 103.173 38.3427 102.873 38.3427ZM102.855 44.3187C102.411 44.3187 102.099 44.2347 101.919 44.0667C101.739 43.8867 101.649 43.5747 101.649 43.1307C101.649 42.8187 101.685 42.5787 101.757 42.4107C101.841 42.2307 101.973 42.0987 102.153 42.0147C102.333 41.9307 102.573 41.8887 102.873 41.8887C103.317 41.8887 103.629 41.9787 103.809 42.1587C103.989 42.3387 104.079 42.6567 104.079 43.1127C104.079 43.4127 104.037 43.6527 103.953 43.8327C103.881 44.0127 103.755 44.1387 103.575 44.2107C103.407 44.2827 103.167 44.3187 102.855 44.3187Z" fill="#3F3F3F"/>
<rect x="121" y="15.2476" width="72" height="42" rx="4.4125" fill="#F2DB4D"/>
<path d="M139.876 42.4996C138.676 42.4996 137.608 42.2296 136.672 41.6896C135.736 41.1496 135.001 40.3906 134.467 39.4126C133.933 38.4286 133.666 37.2736 133.666 35.9476C133.666 34.6216 133.933 33.4696 134.467 32.4916C135.001 31.5076 135.736 30.7456 136.672 30.2056C137.608 29.6656 138.676 29.3956 139.876 29.3956C141.076 29.3956 142.144 29.6656 143.08 30.2056C144.016 30.7456 144.751 31.5076 145.285 32.4916C145.819 33.4696 146.086 34.6216 146.086 35.9476C146.086 37.2736 145.819 38.4286 145.285 39.4126C144.751 40.3906 144.016 41.1496 143.08 41.6896C142.144 42.2296 141.076 42.4996 139.876 42.4996ZM139.876 40.4746C140.758 40.4746 141.496 40.2796 142.09 39.8896C142.684 39.4936 143.131 38.9536 143.431 38.2696C143.731 37.5856 143.881 36.8116 143.881 35.9476C143.881 35.0836 143.731 34.3096 143.431 33.6256C143.131 32.9416 142.684 32.4046 142.09 32.0146C141.496 31.6186 140.758 31.4206 139.876 31.4206C138.988 31.4206 138.247 31.6186 137.653 32.0146C137.059 32.4046 136.612 32.9416 136.312 33.6256C136.012 34.3096 135.862 35.0836 135.862 35.9476C135.862 36.8116 136.012 37.5856 136.312 38.2696C136.612 38.9536 137.059 39.4936 137.653 39.8896C138.247 40.2796 138.988 40.4746 139.876 40.4746ZM148.287 42.2476V34.9396H146.919L147.126 33.3106H148.287V31.3396C148.287 30.5476 148.512 29.9176 148.962 29.4496C149.418 28.9816 150.075 28.7476 150.933 28.7476C151.227 28.7476 151.491 28.7656 151.725 28.8016C151.959 28.8316 152.175 28.8766 152.373 28.9366L152.157 30.5746C152.043 30.5386 151.926 30.5116 151.806 30.4936C151.692 30.4756 151.551 30.4666 151.383 30.4666C151.047 30.4666 150.78 30.5566 150.582 30.7366C150.39 30.9166 150.294 31.2136 150.294 31.6276V33.3106H152.418V34.9396H150.294V42.2476H148.287ZM154.352 42.2476V34.9396H152.984L153.191 33.3106H154.352V31.3396C154.352 30.5476 154.577 29.9176 155.027 29.4496C155.483 28.9816 156.14 28.7476 156.998 28.7476C157.292 28.7476 157.556 28.7656 157.79 28.8016C158.024 28.8316 158.24 28.8766 158.438 28.9366L158.222 30.5746C158.108 30.5386 157.991 30.5116 157.871 30.4936C157.757 30.4756 157.616 30.4666 157.448 30.4666C157.112 30.4666 156.845 30.5566 156.647 30.7366C156.455 30.9166 156.359 31.2136 156.359 31.6276V33.3106H158.483V34.9396H156.359V42.2476H154.352ZM159.99 42.2476V33.3106H161.997V42.2476H159.99ZM159.99 31.7266V29.6476H161.997V31.7266H159.99ZM168.269 42.4276C167.249 42.4276 166.394 42.2206 165.704 41.8066C165.014 41.3866 164.492 40.8286 164.138 40.1326C163.79 39.4306 163.616 38.6566 163.616 37.8106C163.616 36.9466 163.787 36.1606 164.129 35.4526C164.477 34.7446 165.002 34.1806 165.704 33.7606C166.406 33.3406 167.291 33.1306 168.359 33.1306C168.851 33.1306 169.301 33.1846 169.709 33.2926C170.117 33.3946 170.471 33.5266 170.771 33.6886L170.564 35.3536C170.27 35.2036 169.946 35.0836 169.592 34.9936C169.238 34.8976 168.869 34.8496 168.485 34.8496C167.585 34.8496 166.889 35.1166 166.397 35.6506C165.911 36.1786 165.668 36.8896 165.668 37.7836C165.668 38.6416 165.911 39.3496 166.397 39.9076C166.883 40.4656 167.57 40.7446 168.458 40.7446C168.836 40.7446 169.202 40.6936 169.556 40.5916C169.91 40.4896 170.252 40.3486 170.582 40.1686L170.789 41.8426C170.501 42.0046 170.132 42.1426 169.682 42.2566C169.238 42.3706 168.767 42.4276 168.269 42.4276ZM176.526 42.4276C175.458 42.4276 174.564 42.2116 173.844 41.7796C173.13 41.3476 172.59 40.7776 172.224 40.0696C171.864 39.3556 171.684 38.5726 171.684 37.7206C171.684 36.8986 171.852 36.1426 172.188 35.4526C172.53 34.7566 173.025 34.2016 173.673 33.7876C174.327 33.3676 175.119 33.1576 176.049 33.1576C176.865 33.1576 177.561 33.3226 178.137 33.6526C178.713 33.9826 179.151 34.4386 179.451 35.0206C179.757 35.5966 179.91 36.2566 179.91 37.0006C179.91 37.1686 179.898 37.3456 179.874 37.5316C179.856 37.7116 179.829 37.8976 179.793 38.0896H173.763C173.847 38.7436 174.03 39.2626 174.312 39.6466C174.594 40.0306 174.945 40.3096 175.365 40.4836C175.785 40.6516 176.238 40.7356 176.724 40.7356C177.204 40.7356 177.666 40.6786 178.11 40.5646C178.56 40.4446 178.977 40.2826 179.361 40.0786L179.514 41.7436C179.172 41.9116 178.749 42.0676 178.245 42.2116C177.741 42.3556 177.168 42.4276 176.526 42.4276ZM173.853 36.7216H177.858C177.858 36.3976 177.795 36.0946 177.669 35.8126C177.549 35.5246 177.354 35.2936 177.084 35.1196C176.82 34.9396 176.472 34.8496 176.04 34.8496C175.41 34.8496 174.918 35.0206 174.564 35.3626C174.216 35.7046 173.979 36.1576 173.853 36.7216Z" fill="#212121"/>
<defs>
<filter id="filter0_d_1_3857" x="0.0583334" y="0" width="224.883" height="115.883" filterUnits="userSpaceOnUse" color-interpolation-filters="sRGB">
<feFlood flood-opacity="0" result="BackgroundImageFix"/>
<feColorMatrix in="SourceAlpha" type="matrix" values="0 0 0 0 0 0 0 0 0 0 0 0 0 0 0 0 0 0 127 0" result="hardAlpha"/>
<feOffset dy="2.94167"/>
<feGaussianBlur stdDeviation="1.47083"/>
<feComposite in2="hardAlpha" operator="out"/>
<feColorMatrix type="matrix" values="0 0 0 0 0 0 0 0 0 0 0 0 0 0 0 0 0 0 0.25 0"/>
<feBlend mode="normal" in2="BackgroundImageFix" result="effect1_dropShadow_1_3857"/>
<feBlend mode="normal" in="SourceGraphic" in2="effect1_dropShadow_1_3857" result="shape"/>
</filter>
<linearGradient id="paint0_linear_1_3857" x1="173.347" y1="27.1195" x2="65.2742" y2="225.165" gradientUnits="userSpaceOnUse">
<stop stop-color="#C7EAFF"/>
<stop offset="1" stop-color="#FBFAFA" stop-opacity="0"/>
</linearGradient>
</defs>
</svg>
