<svg width="265" height="116" viewBox="0 0 265 116" fill="none" xmlns="http://www.w3.org/2000/svg">
<g filter="url(#filter0_d_1_3841)">
<path fill-rule="evenodd" clip-rule="evenodd" d="M25.0625 0C12.8777 0 3 9.87772 3 22.0625V53.8043V55.0376V110C4.25469 99.198 10.8352 78.8571 23.5549 77.0494C24.0531 77.0831 24.5558 77.1001 25.0625 77.1001H239.938C252.122 77.1001 262 67.2224 262 55.0376V22.0625C262 9.87772 252.122 0 239.938 0H25.0625Z" fill="url(#paint0_linear_1_3841)" shape-rendering="crispEdges"/>
</g>
<path d="M29.2412 44.3907C28.6532 44.3907 28.0592 44.3067 27.4592 44.1387C26.8592 43.9587 26.2832 43.6947 25.7312 43.3467C25.1792 42.9867 24.6872 42.5487 24.2552 42.0327C23.8352 41.5047 23.4992 40.8987 23.2472 40.2147C22.9952 39.5187 22.8692 38.7507 22.8692 37.9107C22.8692 37.0827 22.9952 36.3387 23.2472 35.6787C23.4992 35.0067 23.8352 34.4187 24.2552 33.9147C24.6872 33.4107 25.1732 32.9907 25.7132 32.6547C26.2652 32.3187 26.8412 32.0667 27.4412 31.8987C28.0532 31.7187 28.6592 31.6227 29.2592 31.6107C29.8712 31.6107 30.3992 31.6767 30.8432 31.8087C31.2872 31.9407 31.6472 32.0847 31.9232 32.2407C32.1992 32.3847 32.3852 32.4867 32.4812 32.5467C32.6732 32.6667 32.8532 32.8047 33.0212 32.9607C33.2012 33.1047 33.2972 33.2847 33.3092 33.5007C33.3212 33.6447 33.3032 33.7767 33.2552 33.8967C33.2072 34.0047 33.1412 34.1187 33.0572 34.2387C32.9132 34.4427 32.7692 34.5927 32.6252 34.6887C32.4812 34.7847 32.3372 34.8327 32.1932 34.8327C32.0612 34.8327 31.9352 34.7967 31.8152 34.7247C31.7072 34.6527 31.5692 34.5627 31.4012 34.4547C31.3292 34.4067 31.1972 34.3347 31.0052 34.2387C30.8252 34.1307 30.5792 34.0347 30.2672 33.9507C29.9672 33.8667 29.6012 33.8247 29.1692 33.8247C28.6532 33.8247 28.1492 33.9147 27.6572 34.0947C27.1652 34.2747 26.7212 34.5447 26.3252 34.9047C25.9412 35.2527 25.6352 35.6907 25.4072 36.2187C25.1792 36.7347 25.0652 37.3287 25.0652 38.0007C25.0652 38.6727 25.1792 39.2727 25.4072 39.8007C25.6352 40.3167 25.9412 40.7547 26.3252 41.1147C26.7212 41.4627 27.1652 41.7267 27.6572 41.9067C28.1492 42.0867 28.6532 42.1767 29.1692 42.1767C29.5772 42.1767 29.9252 42.1407 30.2132 42.0687C30.5132 41.9847 30.7652 41.8887 30.9692 41.7807C31.1852 41.6607 31.3472 41.5707 31.4552 41.5107C31.5872 41.4267 31.7132 41.3487 31.8332 41.2767C31.9532 41.2047 32.0792 41.1687 32.2112 41.1687C32.3552 41.1687 32.4932 41.2167 32.6252 41.3127C32.7692 41.4087 32.9072 41.5647 33.0392 41.7807C33.1232 41.9127 33.1892 42.0387 33.2372 42.1587C33.2852 42.2787 33.3032 42.4047 33.2912 42.5367C33.2792 42.7527 33.1832 42.9387 33.0032 43.0947C32.8352 43.2387 32.6552 43.3647 32.4632 43.4727C32.3672 43.5327 32.1812 43.6407 31.9052 43.7967C31.6412 43.9407 31.2872 44.0727 30.8432 44.1927C30.3992 44.3247 29.8652 44.3907 29.2412 44.3907ZM38.0121 44.3187C37.5681 44.3187 37.1721 44.2887 36.8241 44.2287C36.4881 44.1687 36.1941 44.0667 35.9421 43.9227C35.7021 43.7787 35.5041 43.5867 35.3481 43.3467C35.1921 43.0947 35.0721 42.7887 34.9881 42.4287C34.9161 42.0687 34.8801 41.6367 34.8801 41.1327V32.4567C34.8801 32.2527 34.8981 32.0727 34.9341 31.9167C34.9821 31.7487 35.0781 31.6167 35.2221 31.5207C35.3781 31.4127 35.6241 31.3587 35.9601 31.3587C36.2961 31.3587 36.5361 31.4067 36.6801 31.5027C36.8361 31.5987 36.9321 31.7307 36.9681 31.8987C37.0161 32.0547 37.0401 32.2347 37.0401 32.4387V41.0427C37.0401 41.2707 37.0521 41.4627 37.0761 41.6187C37.1121 41.7627 37.1661 41.8827 37.2381 41.9787C37.3221 42.0627 37.4241 42.1227 37.5441 42.1587C37.6761 42.1947 37.8321 42.2127 38.0121 42.2127C38.1681 42.2127 38.3061 42.2307 38.4261 42.2667C38.5581 42.3027 38.6601 42.3927 38.7321 42.5367C38.8161 42.6807 38.8581 42.9147 38.8581 43.2387C38.8581 43.5747 38.8161 43.8207 38.7321 43.9767C38.6601 44.1327 38.5581 44.2287 38.4261 44.2647C38.2941 44.3007 38.1561 44.3187 38.0121 44.3187ZM44.4384 44.4267C43.6584 44.4267 42.9744 44.3007 42.3864 44.0487C41.8104 43.7967 41.3244 43.4547 40.9284 43.0227C40.5444 42.5787 40.2504 42.0867 40.0464 41.5467C39.8544 40.9947 39.7584 40.4247 39.7584 39.8367C39.7584 38.9727 39.9564 38.2047 40.3524 37.5327C40.7484 36.8607 41.2944 36.3327 41.9904 35.9487C42.6984 35.5647 43.5084 35.3727 44.4204 35.3727C45.0684 35.3727 45.6384 35.4747 46.1304 35.6787C46.6224 35.8827 47.0304 36.1527 47.3544 36.4887C47.6904 36.8127 47.9424 37.1727 48.1104 37.5687C48.2904 37.9647 48.3804 38.3487 48.3804 38.7207C48.3804 39.3567 48.2244 39.8187 47.9124 40.1067C47.6124 40.3947 47.2344 40.5387 46.7784 40.5387H42.0264C42.0384 40.9467 42.1644 41.3007 42.4044 41.6007C42.6564 41.9007 42.9684 42.1347 43.3404 42.3027C43.7244 42.4587 44.1144 42.5367 44.5104 42.5367C44.8104 42.5367 45.0744 42.5187 45.3024 42.4827C45.5424 42.4467 45.7464 42.4047 45.9144 42.3567C46.0824 42.2967 46.2264 42.2367 46.3464 42.1767C46.4784 42.1167 46.5984 42.0627 46.7064 42.0147C46.8144 41.9667 46.9164 41.9367 47.0124 41.9247C47.1444 41.9127 47.2764 41.9427 47.4084 42.0147C47.5404 42.0867 47.6484 42.2127 47.7324 42.3927C47.8044 42.5127 47.8524 42.6267 47.8764 42.7347C47.9124 42.8307 47.9304 42.9267 47.9304 43.0227C47.9304 43.2627 47.7864 43.4907 47.4984 43.7067C47.2104 43.9107 46.8024 44.0787 46.2744 44.2107C45.7584 44.3547 45.1464 44.4267 44.4384 44.4267ZM42.0264 39.2607H45.7164C45.9204 39.2607 46.0764 39.2307 46.1844 39.1707C46.2924 39.0987 46.3464 38.9547 46.3464 38.7387C46.3464 38.4627 46.2624 38.2167 46.0944 38.0007C45.9264 37.7727 45.6984 37.5987 45.4104 37.4787C45.1224 37.3467 44.7864 37.2807 44.4024 37.2807C43.9584 37.2807 43.5564 37.3707 43.1964 37.5507C42.8364 37.7187 42.5484 37.9527 42.3324 38.2527C42.1284 38.5527 42.0264 38.8887 42.0264 39.2607ZM57.2375 44.2827C56.8895 44.2827 56.6315 44.2167 56.4635 44.0847C56.2955 43.9527 56.2115 43.7727 56.2115 43.5447L56.3375 42.9507C56.2415 43.1067 56.0795 43.2927 55.8515 43.5087C55.6235 43.7127 55.3235 43.8987 54.9515 44.0667C54.5795 44.2227 54.1295 44.3007 53.6015 44.3007C53.0375 44.3007 52.5035 44.1867 51.9995 43.9587C51.5075 43.7187 51.0695 43.3947 50.6855 42.9867C50.3135 42.5667 50.0135 42.0927 49.7855 41.5647C49.5695 41.0247 49.4615 40.4487 49.4615 39.8367C49.4615 39.2487 49.5695 38.6967 49.7855 38.1807C50.0135 37.6527 50.3195 37.1847 50.7035 36.7767C51.0875 36.3687 51.5255 36.0507 52.0175 35.8227C52.5215 35.5827 53.0495 35.4627 53.6015 35.4627C54.0935 35.4627 54.5075 35.5287 54.8435 35.6607C55.1915 35.7927 55.4855 35.9607 55.7255 36.1647C55.9655 36.3567 56.1635 36.5607 56.3195 36.7767L56.2115 36.2547C56.2115 35.9907 56.2955 35.7927 56.4635 35.6607C56.6315 35.5167 56.8955 35.4447 57.2555 35.4447C57.5915 35.4447 57.8315 35.4987 57.9755 35.6067C58.1195 35.7027 58.2095 35.8407 58.2455 36.0207C58.2815 36.1887 58.2995 36.3807 58.2995 36.5967V43.1847C58.2995 43.3887 58.2815 43.5747 58.2455 43.7427C58.2095 43.9107 58.1135 44.0427 57.9575 44.1387C57.8135 44.2347 57.5735 44.2827 57.2375 44.2827ZM53.9255 42.1947C54.3335 42.1947 54.6995 42.0927 55.0235 41.8887C55.3475 41.6847 55.6055 41.4087 55.7975 41.0607C56.0015 40.7007 56.1035 40.3047 56.1035 39.8727C56.1035 39.4047 56.0015 38.9967 55.7975 38.6487C55.5935 38.3007 55.3235 38.0307 54.9875 37.8387C54.6635 37.6347 54.2975 37.5327 53.8895 37.5327C53.4455 37.5327 53.0495 37.6407 52.7015 37.8567C52.3535 38.0607 52.0775 38.3427 51.8735 38.7027C51.6815 39.0507 51.5855 39.4467 51.5855 39.8907C51.5855 40.3227 51.6875 40.7127 51.8915 41.0607C52.0955 41.4087 52.3715 41.6847 52.7195 41.8887C53.0795 42.0927 53.4815 42.1947 53.9255 42.1947ZM61.1676 44.3007C60.8436 44.3007 60.6036 44.2467 60.4476 44.1387C60.3036 44.0427 60.2136 43.9167 60.1776 43.7607C60.1416 43.5927 60.1236 43.4067 60.1236 43.2027V36.4707C60.1236 36.2787 60.1416 36.1047 60.1776 35.9487C60.2136 35.7927 60.3096 35.6727 60.4656 35.5887C60.6216 35.4927 60.8616 35.4447 61.1856 35.4447C61.4736 35.4447 61.6896 35.4807 61.8336 35.5527C61.9776 35.6247 62.0736 35.7147 62.1216 35.8227C62.1696 35.9307 62.1936 36.0387 62.1936 36.1467C62.2056 36.2547 62.2176 36.3387 62.2296 36.3987L62.1576 36.9747C62.2296 36.7827 62.3496 36.5967 62.5176 36.4167C62.6856 36.2367 62.8896 36.0747 63.1296 35.9307C63.3696 35.7747 63.6276 35.6547 63.9036 35.5707C64.1916 35.4747 64.4856 35.4267 64.7856 35.4267C65.3496 35.4267 65.8536 35.5287 66.2976 35.7327C66.7416 35.9367 67.1196 36.2247 67.4316 36.5967C67.7556 36.9687 68.0016 37.4127 68.1696 37.9287C68.3376 38.4327 68.4216 39.0027 68.4216 39.6387V43.2207C68.4216 43.4247 68.3976 43.6107 68.3496 43.7787C68.3136 43.9347 68.2236 44.0607 68.0796 44.1567C67.9356 44.2527 67.6896 44.3007 67.3416 44.3007C67.0056 44.3007 66.7596 44.2467 66.6036 44.1387C66.4476 44.0427 66.3516 43.9167 66.3156 43.7607C66.2796 43.5927 66.2616 43.4067 66.2616 43.2027V39.6207C66.2616 39.1887 66.1836 38.8167 66.0276 38.5047C65.8836 38.1927 65.6676 37.9527 65.3796 37.7847C65.1036 37.6167 64.7496 37.5327 64.3176 37.5327C63.8976 37.5327 63.5316 37.6227 63.2196 37.8027C62.9076 37.9707 62.6676 38.2107 62.4996 38.5227C62.3316 38.8347 62.2476 39.2007 62.2476 39.6207V43.2207C62.2476 43.4247 62.2296 43.6107 62.1936 43.7787C62.1576 43.9347 62.0616 44.0607 61.9056 44.1567C61.7616 44.2527 61.5156 44.3007 61.1676 44.3007ZM75.6867 44.3007C75.3627 44.3007 75.1227 44.2527 74.9667 44.1567C74.8227 44.0607 74.7327 43.9287 74.6967 43.7607C74.6607 43.5927 74.6427 43.4127 74.6427 43.2207V36.4887C74.6427 36.2967 74.6607 36.1227 74.6967 35.9667C74.7327 35.8107 74.8287 35.6847 74.9847 35.5887C75.1407 35.4927 75.3867 35.4447 75.7227 35.4447C76.0707 35.4447 76.3227 35.5167 76.4787 35.6607C76.6467 35.8047 76.7307 36.0327 76.7307 36.3447L76.5687 36.8487C76.6287 36.7167 76.7307 36.5727 76.8747 36.4167C77.0187 36.2607 77.1927 36.1047 77.3967 35.9487C77.6127 35.7927 77.8527 35.6667 78.1167 35.5707C78.3807 35.4747 78.6567 35.4267 78.9447 35.4267C79.3407 35.4267 79.7007 35.4927 80.0247 35.6247C80.3607 35.7567 80.6547 35.9487 80.9067 36.2007C81.1707 36.4527 81.3987 36.7587 81.5907 37.1187C81.7947 36.8067 82.0227 36.5247 82.2747 36.2727C82.5267 36.0087 82.8207 35.8047 83.1567 35.6607C83.4927 35.5047 83.8707 35.4267 84.2907 35.4267C84.9867 35.4267 85.5687 35.6007 86.0367 35.9487C86.5167 36.2967 86.8767 36.7947 87.1167 37.4427C87.3687 38.0787 87.4947 38.8407 87.4947 39.7287V43.2207C87.4947 43.4247 87.4707 43.6107 87.4227 43.7787C87.3867 43.9347 87.2907 44.0607 87.1347 44.1567C86.9907 44.2527 86.7507 44.3007 86.4147 44.3007C86.0787 44.3007 85.8327 44.2467 85.6767 44.1387C85.5207 44.0427 85.4247 43.9167 85.3887 43.7607C85.3527 43.5927 85.3347 43.4067 85.3347 43.2027V39.7107C85.3347 39.2667 85.2807 38.8827 85.1727 38.5587C85.0647 38.2347 84.9027 37.9827 84.6867 37.8027C84.4827 37.6227 84.2127 37.5327 83.8767 37.5327C83.5167 37.5327 83.2047 37.6227 82.9407 37.8027C82.6887 37.9707 82.4907 38.2167 82.3467 38.5407C82.2027 38.8647 82.1307 39.2607 82.1307 39.7287V43.2387C82.1307 43.4427 82.1007 43.6347 82.0407 43.8147C81.9807 43.9827 81.8607 44.1087 81.6807 44.1927C81.5127 44.2887 81.2667 44.3247 80.9427 44.3007C80.6427 44.2887 80.4207 44.2287 80.2767 44.1207C80.1447 44.0127 80.0607 43.8807 80.0247 43.7247C80.0007 43.5567 79.9887 43.3827 79.9887 43.2027V39.7107C79.9887 39.2667 79.9347 38.8827 79.8267 38.5587C79.7187 38.2227 79.5567 37.9707 79.3407 37.8027C79.1367 37.6227 78.8607 37.5327 78.5127 37.5327C78.1407 37.5327 77.8227 37.6287 77.5587 37.8207C77.3067 38.0127 77.1147 38.2707 76.9827 38.5947C76.8507 38.9187 76.7847 39.2907 76.7847 39.7107V43.2387C76.7847 43.4307 76.7607 43.6107 76.7127 43.7787C76.6767 43.9467 76.5807 44.0727 76.4247 44.1567C76.2807 44.2527 76.0347 44.3007 75.6867 44.3007ZM90.9899 47.8647C90.6059 47.6967 90.3839 47.5047 90.3239 47.2887C90.2639 47.0847 90.3179 46.8087 90.4859 46.4607L95.1299 36.0567C95.2979 35.6727 95.4779 35.4447 95.6699 35.3727C95.8619 35.2887 96.1559 35.3307 96.5519 35.4987C96.9239 35.6667 97.1399 35.8527 97.1999 36.0567C97.2719 36.2607 97.2299 36.5367 97.0739 36.8847L92.3939 47.3427C92.2379 47.7267 92.0639 47.9487 91.8719 48.0087C91.6799 48.0807 91.3859 48.0327 90.9899 47.8647ZM92.6639 43.4547L88.5059 37.0647C88.2899 36.7407 88.1999 36.4707 88.2359 36.2547C88.2839 36.0387 88.4759 35.8287 88.8119 35.6247C89.1839 35.3967 89.4719 35.3067 89.6759 35.3547C89.8919 35.4027 90.1079 35.5947 90.3239 35.9307L93.6179 41.0607L92.6639 43.4547ZM104.058 38.3427C103.602 38.3427 103.284 38.2527 103.104 38.0727C102.924 37.8927 102.834 37.5867 102.834 37.1547C102.834 36.8427 102.87 36.5967 102.942 36.4167C103.026 36.2367 103.158 36.1107 103.338 36.0387C103.518 35.9547 103.758 35.9127 104.058 35.9127C104.514 35.9127 104.826 36.0027 104.994 36.1827C105.174 36.3627 105.264 36.6807 105.264 37.1367C105.264 37.4247 105.228 37.6587 105.156 37.8387C105.084 38.0187 104.958 38.1507 104.778 38.2347C104.598 38.3067 104.358 38.3427 104.058 38.3427ZM104.04 44.3187C103.596 44.3187 103.284 44.2347 103.104 44.0667C102.924 43.8867 102.834 43.5747 102.834 43.1307C102.834 42.8187 102.87 42.5787 102.942 42.4107C103.026 42.2307 103.158 42.0987 103.338 42.0147C103.518 41.9307 103.758 41.8887 104.058 41.8887C104.502 41.8887 104.814 41.9787 104.994 42.1587C105.174 42.3387 105.264 42.6567 105.264 43.1127C105.264 43.4127 105.222 43.6527 105.138 43.8327C105.066 44.0127 104.94 44.1387 104.76 44.2107C104.592 44.2827 104.352 44.3187 104.04 44.3187Z" fill="#3F3F3F"/>
<rect x="128.77" y="15.2476" width="108" height="42" rx="4.4125" fill="#F2DB4D"/>
<path d="M149.023 39.1066H143.704V37.2616H149.023V39.1066ZM146.089 31.6906H146.647L142.921 42.2476H140.851L145.342 29.6476H147.385L151.885 42.2476H149.806L146.089 31.6906ZM153.011 46.6036V33.3106H154.613L155 34.9936L154.406 34.7326C154.808 34.2526 155.261 33.8716 155.765 33.5896C156.275 33.3016 156.896 33.1576 157.628 33.1576C158.486 33.1576 159.209 33.3676 159.797 33.7876C160.391 34.2076 160.841 34.7686 161.147 35.4706C161.453 36.1726 161.606 36.9466 161.606 37.7926C161.606 38.6386 161.456 39.4126 161.156 40.1146C160.856 40.8166 160.412 41.3776 159.824 41.7976C159.236 42.2176 158.504 42.4276 157.628 42.4276C156.926 42.4276 156.332 42.3136 155.846 42.0856C155.366 41.8576 154.937 41.5036 154.559 41.0236L155.018 40.6186V46.6036H153.011ZM157.304 40.7356C158.012 40.7356 158.564 40.4686 158.96 39.9346C159.356 39.3946 159.554 38.6806 159.554 37.7926C159.554 36.8986 159.356 36.1846 158.96 35.6506C158.564 35.1166 158.012 34.8496 157.304 34.8496C156.8 34.8496 156.368 34.9696 156.008 35.2096C155.654 35.4436 155.384 35.7796 155.198 36.2176C155.012 36.6556 154.919 37.1806 154.919 37.7926C154.919 38.4166 155.012 38.9476 155.198 39.3856C155.384 39.8236 155.654 40.1596 156.008 40.3936C156.368 40.6216 156.8 40.7356 157.304 40.7356ZM165.196 42.4276C164.692 42.4276 164.239 42.3196 163.837 42.1036C163.435 41.8876 163.117 41.5816 162.883 41.1856C162.655 40.7896 162.541 40.3216 162.541 39.7816C162.541 39.2776 162.655 38.8456 162.883 38.4856C163.117 38.1196 163.423 37.8166 163.801 37.5766C164.185 37.3366 164.602 37.1476 165.052 37.0096C165.508 36.8656 165.964 36.7606 166.42 36.6946C166.882 36.6286 167.302 36.5926 167.68 36.5866C167.662 35.9506 167.515 35.5126 167.239 35.2726C166.969 35.0266 166.54 34.9036 165.952 34.9036C165.574 34.9036 165.196 34.9576 164.818 35.0656C164.44 35.1736 164.011 35.3626 163.531 35.6326L163.324 33.9946C163.798 33.7306 164.302 33.5266 164.836 33.3826C165.376 33.2326 165.928 33.1576 166.492 33.1576C167.194 33.1576 167.782 33.2806 168.256 33.5266C168.73 33.7726 169.087 34.1776 169.327 34.7416C169.573 35.3056 169.696 36.0586 169.696 37.0006V39.1966C169.696 39.6346 169.717 39.9676 169.759 40.1956C169.801 40.4236 169.882 40.5796 170.002 40.6636C170.128 40.7476 170.317 40.7896 170.569 40.7896H170.812L170.596 42.4276H170.038C169.63 42.4276 169.291 42.3796 169.021 42.2836C168.751 42.1936 168.529 42.0646 168.355 41.8966C168.187 41.7286 168.043 41.5276 167.923 41.2936C167.617 41.6416 167.221 41.9176 166.735 42.1216C166.255 42.3256 165.742 42.4276 165.196 42.4276ZM165.898 40.8706C166.18 40.8706 166.489 40.7986 166.825 40.6546C167.161 40.5046 167.449 40.2946 167.689 40.0246V37.9546C167.113 37.9726 166.594 38.0476 166.132 38.1796C165.67 38.3056 165.304 38.4946 165.034 38.7466C164.77 38.9926 164.638 39.3076 164.638 39.6916C164.638 40.0936 164.743 40.3906 164.953 40.5826C165.169 40.7746 165.484 40.8706 165.898 40.8706ZM172.048 42.2476V33.3106H173.866L173.965 34.4536C174.277 34.0876 174.64 33.7756 175.054 33.5176C175.468 33.2596 175.915 33.1306 176.395 33.1306C176.539 33.1306 176.674 33.1456 176.8 33.1756L176.638 35.2186C176.524 35.1886 176.41 35.1706 176.296 35.1646C176.182 35.1526 176.065 35.1466 175.945 35.1466C175.537 35.1466 175.162 35.2396 174.82 35.4256C174.478 35.6116 174.238 35.8276 174.1 36.0736V42.2476H172.048ZM180.881 42.4276C180.317 42.4276 179.861 42.3166 179.513 42.0946C179.165 41.8726 178.91 41.5906 178.748 41.2486C178.586 40.9006 178.505 40.5376 178.505 40.1596V34.9396H177.137L177.317 33.3106H178.505V31.2586L180.512 31.0516V33.3106H182.618V34.9396H180.512V39.2146C180.512 39.7126 180.542 40.0726 180.602 40.2946C180.662 40.5106 180.8 40.6486 181.016 40.7086C181.232 40.7626 181.58 40.7896 182.06 40.7896H182.6L182.429 42.4276H180.881ZM184.054 42.2476V33.3106H185.728L185.935 34.7686L185.512 34.4086C185.926 34.0186 186.379 33.7126 186.871 33.4906C187.369 33.2686 187.924 33.1576 188.536 33.1576C188.998 33.1576 189.418 33.2296 189.796 33.3736C190.18 33.5116 190.513 33.7276 190.795 34.0216C191.083 34.3156 191.314 34.6906 191.488 35.1466L190.975 34.9936C191.257 34.4176 191.674 33.9676 192.226 33.6436C192.778 33.3196 193.444 33.1576 194.224 33.1576C195.022 33.1576 195.679 33.3166 196.195 33.6346C196.711 33.9466 197.092 34.4026 197.338 35.0026C197.59 35.6026 197.716 36.3256 197.716 37.1716V42.2476H195.7V37.2796C195.7 36.4456 195.559 35.8336 195.277 35.4436C194.995 35.0476 194.527 34.8496 193.873 34.8496C193.495 34.8496 193.177 34.9126 192.919 35.0386C192.661 35.1586 192.457 35.3296 192.307 35.5516C192.157 35.7736 192.049 36.0256 191.983 36.3076C191.923 36.5896 191.893 36.8896 191.893 37.2076V42.2476H189.877V37.3966C189.877 36.7786 189.808 36.2836 189.67 35.9116C189.532 35.5396 189.325 35.2696 189.049 35.1016C188.773 34.9336 188.431 34.8496 188.023 34.8496C187.477 34.8496 187.012 34.9756 186.628 35.2276C186.25 35.4736 185.95 35.8306 185.728 36.2986L186.061 35.2186V42.2476H184.054ZM204.054 42.4276C202.986 42.4276 202.092 42.2116 201.372 41.7796C200.658 41.3476 200.118 40.7776 199.752 40.0696C199.392 39.3556 199.212 38.5726 199.212 37.7206C199.212 36.8986 199.38 36.1426 199.716 35.4526C200.058 34.7566 200.553 34.2016 201.201 33.7876C201.855 33.3676 202.647 33.1576 203.577 33.1576C204.393 33.1576 205.089 33.3226 205.665 33.6526C206.241 33.9826 206.679 34.4386 206.979 35.0206C207.285 35.5966 207.438 36.2566 207.438 37.0006C207.438 37.1686 207.426 37.3456 207.402 37.5316C207.384 37.7116 207.357 37.8976 207.321 38.0896H201.291C201.375 38.7436 201.558 39.2626 201.84 39.6466C202.122 40.0306 202.473 40.3096 202.893 40.4836C203.313 40.6516 203.766 40.7356 204.252 40.7356C204.732 40.7356 205.194 40.6786 205.638 40.5646C206.088 40.4446 206.505 40.2826 206.889 40.0786L207.042 41.7436C206.7 41.9116 206.277 42.0676 205.773 42.2116C205.269 42.3556 204.696 42.4276 204.054 42.4276ZM201.381 36.7216H205.386C205.386 36.3976 205.323 36.0946 205.197 35.8126C205.077 35.5246 204.882 35.2936 204.612 35.1196C204.348 34.9396 204 34.8496 203.568 34.8496C202.938 34.8496 202.446 35.0206 202.092 35.3626C201.744 35.7046 201.507 36.1576 201.381 36.7216ZM208.998 42.2476V33.3106H210.789L210.96 34.9936L210.402 34.4626C210.834 34.0366 211.302 33.7126 211.806 33.4906C212.316 33.2686 212.871 33.1576 213.471 33.1576C214.671 33.1576 215.55 33.5356 216.108 34.2916C216.666 35.0476 216.945 36.0466 216.945 37.2886V42.2476H214.938V37.3966C214.938 36.5206 214.785 35.8786 214.479 35.4706C214.173 35.0566 213.669 34.8496 212.967 34.8496C212.421 34.8496 211.956 34.9756 211.572 35.2276C211.188 35.4796 210.888 35.8426 210.672 36.3166L211.005 35.2546V42.2476H208.998ZM221.838 42.4276C221.274 42.4276 220.818 42.3166 220.47 42.0946C220.122 41.8726 219.867 41.5906 219.705 41.2486C219.543 40.9006 219.462 40.5376 219.462 40.1596V34.9396H218.094L218.274 33.3106H219.462V31.2586L221.469 31.0516V33.3106H223.575V34.9396H221.469V39.2146C221.469 39.7126 221.499 40.0726 221.559 40.2946C221.619 40.5106 221.757 40.6486 221.973 40.7086C222.189 40.7626 222.537 40.7896 223.017 40.7896H223.557L223.386 42.4276H221.838Z" fill="#212121"/>
<defs>
<filter id="filter0_d_1_3841" x="0.0583334" y="0" width="264.883" height="115.883" filterUnits="userSpaceOnUse" color-interpolation-filters="sRGB">
<feFlood flood-opacity="0" result="BackgroundImageFix"/>
<feColorMatrix in="SourceAlpha" type="matrix" values="0 0 0 0 0 0 0 0 0 0 0 0 0 0 0 0 0 0 127 0" result="hardAlpha"/>
<feOffset dy="2.94167"/>
<feGaussianBlur stdDeviation="1.47083"/>
<feComposite in2="hardAlpha" operator="out"/>
<feColorMatrix type="matrix" values="0 0 0 0 0 0 0 0 0 0 0 0 0 0 0 0 0 0 0.25 0"/>
<feBlend mode="normal" in2="BackgroundImageFix" result="effect1_dropShadow_1_3841"/>
<feBlend mode="normal" in="SourceGraphic" in2="effect1_dropShadow_1_3841" result="shape"/>
</filter>
<linearGradient id="paint0_linear_1_3841" x1="184.564" y1="27.1195" x2="80.3023" y2="230.759" gradientUnits="userSpaceOnUse">
<stop stop-color="#C7EAFF"/>
<stop offset="1" stop-color="#FBFAFA" stop-opacity="0"/>
</linearGradient>
</defs>
</svg>
