<svg width="42" height="42" viewBox="0 0 42 42" fill="none" xmlns="http://www.w3.org/2000/svg">
<path fill-rule="evenodd" clip-rule="evenodd" d="M8.03581 26.7824C4.10205 17.1268 11.2055 6.5625 21.6317 6.5625H22.1941C29.9915 6.5625 36.3125 12.8835 36.3125 20.6809C36.3125 29.3623 29.2748 36.4 20.5934 36.4H6.90791C6.35096 36.4 5.85466 36.0485 5.66981 35.5231C5.48496 34.9977 5.65182 34.4129 6.08607 34.0642L9.53618 31.2934C9.68704 31.1723 9.7404 30.9664 9.6674 30.7872L8.03581 26.7824ZM21.6317 9.1875C13.0697 9.1875 7.23641 17.8629 10.4668 25.792L12.0984 29.7968C12.6094 31.0511 12.2358 32.492 11.1799 33.3401L10.6383 33.775H20.5934C27.8251 33.775 33.6875 27.9126 33.6875 20.6809C33.6875 14.3333 28.5418 9.1875 22.1941 9.1875H21.6317Z" fill="#5CC0FF"/>
</svg>
