<svg width="33" height="35" viewBox="0 0 33 35" fill="none" xmlns="http://www.w3.org/2000/svg">
<path fill-rule="evenodd" clip-rule="evenodd" d="M25.8194 2.33755C25.8387 2.21448 25.8645 2.09565 25.8969 1.98105L33 7.94124V24.3177L25.6845 30.4561C25.6675 30.1763 25.6589 29.8939 25.6589 29.6089V20.8431H16.5127V29.5602C16.5127 30.2745 16.4592 30.9887 16.3522 31.703C16.2453 32.3848 15.9377 32.9529 15.4296 33.4074C14.9215 33.8295 14.0657 34.0405 12.8622 34.0405C11.632 34.0405 10.7629 33.8295 10.2547 33.4074C9.74661 32.9529 9.43906 32.3848 9.33209 31.703C9.22512 31.0212 9.17163 30.3232 9.17163 29.6089V4.4803C9.17163 3.73358 9.22512 3.01933 9.33209 2.33755C9.43906 1.65576 9.74661 1.10384 10.2547 0.681785C10.7361 0.227262 11.5919 0 12.8221 0C14.0523 0 14.9215 0.227262 15.4296 0.681785C15.9377 1.10384 16.2453 1.65576 16.3522 2.33755C16.4592 3.01933 16.5127 3.71735 16.5127 4.4316V13.2461H25.6589V4.4803C25.6589 3.73358 25.7124 3.01933 25.8194 2.33755Z" fill="#5CC0FF"/>
<path d="M1 24.9002C3.7279 22.9422 5.03624 22.0407 5.51553 21.7154C5.46781 18.8834 7.33971 16.9389 8.355 15.8876C9.19424 15.0848 9.8387 14.1254 10.2244 13.1044C10.5127 12.3444 11.2788 10.3252 13.0267 10.3965C13.316 10.4117 13.5855 10.4882 13.8168 10.6209C14.0481 10.7536 14.2357 10.9392 14.3667 11.1651C14.4838 11.3549 14.5491 11.5761 14.558 11.8129C14.5668 12.0497 14.5189 12.2961 14.4177 12.5344L13.5005 14.7954L18.8611 10.5807C19.2567 10.2683 19.7369 10.0959 20.1964 10.1014C20.656 10.107 21.0573 10.29 21.3124 10.6102C21.4393 10.7713 21.5247 10.9622 21.5636 11.1716L22.2714 10.6151C22.4666 10.4596 22.685 10.3369 22.9139 10.254C23.1429 10.1712 23.378 10.1298 23.6056 10.1323C23.8332 10.1348 24.0489 10.1811 24.2402 10.2686C24.4315 10.3561 24.5948 10.483 24.7205 10.6421C24.8462 10.8011 24.932 10.9892 24.9728 11.1954C25.0137 11.4016 25.0088 11.622 24.9585 11.8438C24.9082 12.0655 24.8134 12.2844 24.6797 12.4877C24.5459 12.6911 24.3758 12.8749 24.1792 13.0286C24.3663 13.1153 24.5259 13.2403 24.6489 13.3966C24.8999 13.7201 24.983 14.1533 24.88 14.6011C24.7769 15.049 24.4961 15.475 24.0992 15.7857L22.8961 16.7316C23.0295 16.8118 23.1453 16.9135 23.2394 17.0332C23.4905 17.3567 23.5736 17.7899 23.4705 18.2379C23.3674 18.6858 23.0865 19.1118 22.6895 19.4225L18.9216 22.4014C18.5766 22.6727 18.2357 22.9526 17.8945 23.2328L17.8799 23.2448C16.7754 24.1515 15.6335 25.089 14.3225 25.7813C13.0701 26.4428 11.5955 26.7877 9.94137 26.814C9.38976 27.3007 7.97476 28.5587 5.29234 30.999C4.97455 30.8205 4.70541 30.584 4.49657 30.2969L4.50046 30.3015C8.0758 27.0484 9.44014 25.8586 9.51119 25.7966L9.51403 25.7941C9.61841 25.7039 9.7443 25.6428 9.87307 25.6199C10.0018 25.597 10.1266 25.6135 10.229 25.667C11.4511 25.6837 12.7219 25.3857 13.9131 24.8033C15.0833 24.1854 16.1138 23.3394 17.2048 22.4437L17.2071 22.4418C17.5439 22.1653 17.8805 21.889 18.2203 21.6205L22.0421 18.5991C22.1065 18.5505 22.1625 18.4919 22.2067 18.4267C22.2509 18.3615 22.2825 18.2909 22.2996 18.2193C22.3167 18.1477 22.319 18.0763 22.3063 18.0095C22.2936 17.9427 22.2662 17.8817 22.2257 17.8302C22.1852 17.7787 22.1324 17.7377 22.0705 17.7096C22.0086 17.6815 21.9387 17.6669 21.865 17.6666C21.7914 17.6663 21.7154 17.6804 21.6416 17.708C21.5678 17.7355 21.4976 17.7761 21.4352 17.8272L17.2487 21.1187C17.1143 21.2244 16.9513 21.2824 16.7955 21.2799C16.6398 21.2775 16.504 21.2147 16.4182 21.1055C16.3324 20.9963 16.3034 20.8496 16.3378 20.6977C16.3721 20.5458 16.4669 20.401 16.6014 20.2953L20.7879 17.0038C20.903 16.9137 21.0262 16.8347 21.155 16.7682L23.4518 14.9623C23.5161 14.9138 23.5721 14.8551 23.6162 14.7899C23.6604 14.7247 23.692 14.6542 23.7091 14.5825C23.7262 14.5109 23.7284 14.4396 23.7157 14.3728C23.703 14.306 23.6756 14.2451 23.6351 14.1936C23.5947 14.1421 23.5419 14.1011 23.48 14.073C23.4181 14.0449 23.3482 14.0302 23.2746 14.0299C23.201 14.0296 23.125 14.0437 23.0512 14.0712C22.9774 14.0988 22.9072 14.1392 22.8448 14.1903L16.0283 19.5497C15.8939 19.6553 15.7309 19.7133 15.5751 19.7109C15.4194 19.7084 15.2836 19.6457 15.1978 19.5365L15.1966 19.5345C15.1366 19.4861 15.0916 19.4232 15.0649 19.3503C15.0382 19.2774 15.0303 19.1963 15.042 19.1129C15.0536 19.0296 15.0844 18.946 15.1322 18.8682C15.18 18.7904 15.2435 18.7205 15.3182 18.6633L23.5256 12.2104C23.59 12.1619 23.6459 12.1032 23.6901 12.038C23.7343 11.9728 23.7658 11.9023 23.7829 11.8307C23.8 11.7591 23.8023 11.6877 23.7896 11.6209C23.7769 11.5541 23.7495 11.4932 23.709 11.4417C23.6685 11.3902 23.6158 11.3492 23.5539 11.3211C23.4919 11.293 23.4221 11.2784 23.3485 11.2781C23.2748 11.2778 23.1989 11.2919 23.1251 11.3194C23.0513 11.347 22.9811 11.3875 22.9187 11.4385L14.7113 17.8914C14.5769 17.9971 14.4139 18.0551 14.2581 18.0526C14.1024 18.0501 13.9667 17.9874 13.8808 17.8782C13.8661 17.8454 13.8439 17.8172 13.8155 17.7952C13.7297 17.686 13.7008 17.5393 13.7351 17.3874C13.7695 17.2354 13.8643 17.0907 13.9987 16.985L20.1153 12.1759C20.1797 12.1274 20.2356 12.0688 20.2798 12.0035C20.324 11.9383 20.3555 11.8678 20.3726 11.7962C20.3897 11.7246 20.392 11.6533 20.3793 11.5865C20.3666 11.5197 20.3392 11.4588 20.2987 11.4073C20.2582 11.3558 20.2055 11.3148 20.1436 11.2867C20.0817 11.2586 20.0118 11.244 19.9382 11.2437C19.8646 11.2434 19.7886 11.2574 19.7148 11.285C19.641 11.3125 19.5709 11.353 19.5085 11.4041L13.1904 16.3716C12.614 16.8248 12.2428 16.6913 12.1102 16.6128C11.9767 16.5347 11.6968 16.2837 11.9554 15.6469L13.3122 12.3023C13.3433 12.2252 13.357 12.1458 13.3525 12.0699C13.3479 11.994 13.3251 11.9234 13.2858 11.8633C13.2318 11.7705 13.1552 11.6938 13.0608 11.6383C12.9664 11.5828 12.8565 11.5497 12.7382 11.5413C12.3668 11.5262 11.9413 11.7277 11.3482 13.2914C10.8961 14.4908 10.143 15.6192 9.16214 16.5668C7.93534 17.8369 6.63361 19.3764 6.71712 21.5787C6.65926 21.8912 6.50792 22.199 6.28184 22.464C6.27066 22.4713 5.23318 23.1586 2.15411 25.3621C1.83449 25.1725 1.47837 25.0253 1.09194 24.9247C1.06105 24.9169 1.0304 24.9087 1 24.9002Z" fill="#FFDC61" stroke="#FFDC61" stroke-width="0.2"/>
</svg>
