<svg width="1440" height="436" viewBox="0 0 1440 436" fill="none" xmlns="http://www.w3.org/2000/svg">
<g clip-path="url(#clip0_1_2385)">
<path d="M350.3 511.04L244 311" stroke="#357DD2" stroke-width="15.8857" stroke-linecap="round"/>
<g filter="url(#filter0_d_1_2385)">
<path d="M1147.29 124.326C1165.94 117.141 1186.31 115.648 1205.81 120.035C1225.3 124.422 1243.07 134.493 1256.84 148.974C1270.62 163.455 1279.79 181.695 1283.2 201.389C1286.6 221.083 1284.1 241.345 1275.99 259.613C1267.88 277.882 1254.54 293.336 1237.65 304.021C1220.76 314.707 1201.08 320.144 1181.1 319.645C1161.12 319.146 1141.74 312.734 1125.4 301.218C1109.07 289.703 1096.51 273.602 1089.33 254.952L1112.9 245.871C1118.29 259.86 1127.7 271.936 1139.95 280.573C1152.21 289.21 1166.75 294.02 1181.73 294.394C1196.72 294.768 1211.48 290.69 1224.15 282.675C1236.81 274.661 1246.82 263.069 1252.9 249.367C1258.98 235.665 1260.86 220.468 1258.31 205.697C1255.75 190.926 1248.87 177.245 1238.54 166.383C1228.21 155.522 1214.89 147.969 1200.26 144.678C1185.64 141.387 1170.36 142.507 1156.38 147.897L1147.29 124.326Z" fill="#357DD2"/>
</g>
<path d="M1016.25 53.662C1005.64 57.4183 994.147 57.9431 983.236 55.1699C972.324 52.3968 962.48 46.4502 954.948 38.0823C947.416 29.7143 942.535 19.3008 940.921 8.15855C939.307 -2.98368 941.034 -14.3542 945.883 -24.5151L970.608 -12.7168C968.092 -7.446 967.197 -1.54774 968.034 4.2321C968.871 10.0119 971.403 15.4138 975.31 19.7545C979.217 24.0953 984.324 27.1799 989.984 28.6185C995.644 30.057 1001.6 29.7848 1007.11 27.8362L1016.25 53.662Z" fill="#FFEF5E"/>
<path d="M-11.4854 178.714L148.696 18.5334" stroke="#357DD2" stroke-width="15.8857" stroke-linecap="round"/>
<path d="M1437.34 112.766L1398.24 50.6815L1471.56 47.8597L1437.34 112.766Z" fill="#FFEF5E"/>
<path d="M-56.4948 245.849L16.8781 245.849L-19.8083 309.392L-56.4948 245.849Z" fill="#FFEF5E"/>
<path d="M519.557 305.426L544.537 374.415L472.3 361.554L519.557 305.426Z" fill="#FFEF5E"/>
<g filter="url(#filter1_d_1_2385)">
<path d="M690.795 260.992L710.73 263.21C723.974 264.684 736.656 257.442 742.117 245.287V245.287C747.034 234.343 757.878 227.269 769.874 227.176L780.125 227.097C791.193 227.012 801.229 220.58 805.93 210.559V210.559C810.868 200.03 821.664 193.514 833.281 194.05L836.759 194.211C849.586 194.803 861.649 188.11 867.934 176.913L877.991 159" stroke="white" stroke-width="6.61905" stroke-linecap="round"/>
</g>
<path d="M1558.99 385.195L1548.46 368.121C1541.46 356.778 1527.95 351.245 1515.01 354.426V354.426C1503.36 357.29 1491.11 353.102 1483.65 343.706L1477.27 335.678C1470.39 327.009 1459.14 323.062 1448.35 325.529V325.529C1437.02 328.12 1425.23 323.626 1418.5 314.142L1416.49 311.303C1409.06 300.832 1396.36 295.448 1383.66 297.389L1363.36 300.496" stroke="white" stroke-width="6.61905" stroke-linecap="round"/>
<path d="M1570.92 364.225L1560.39 347.151C1553.4 335.808 1539.88 330.275 1526.94 333.456V333.456C1515.29 336.319 1503.04 332.132 1495.58 322.736L1489.21 314.707C1482.32 306.039 1471.08 302.092 1460.29 304.559V304.559C1448.95 307.15 1437.17 302.656 1430.44 293.172L1428.42 290.333C1420.99 279.862 1408.29 274.478 1395.6 276.419L1375.29 279.525" stroke="white" stroke-width="6.61905" stroke-linecap="round"/>
<path d="M1585.63 345.29L1575.1 328.216C1568.1 316.873 1554.59 311.34 1541.65 314.521V314.521C1530 317.385 1517.75 313.197 1510.29 303.801L1503.91 295.773C1497.03 287.104 1485.78 283.157 1474.99 285.624V285.624C1463.66 288.215 1451.87 283.721 1445.14 274.237L1443.13 271.398C1435.7 260.927 1423 255.543 1410.3 257.484L1390 260.591" stroke="white" stroke-width="6.61905" stroke-linecap="round"/>
<path d="M1557.66 389.167L1547.13 372.093C1540.14 360.75 1526.63 355.217 1513.68 358.398V358.398C1502.03 361.262 1489.78 357.074 1482.32 347.678L1475.95 339.65C1469.07 330.981 1457.82 327.034 1447.03 329.501V329.501C1435.69 332.093 1423.91 327.598 1417.18 318.114L1415.16 315.275C1407.73 304.804 1395.03 299.42 1382.34 301.361L1362.03 304.468" stroke="#5FC1FF" stroke-width="6.61905" stroke-linecap="round"/>
<path d="M1569.59 368.197L1559.07 351.123C1552.07 339.78 1538.56 334.247 1525.62 337.428V337.428C1513.97 340.291 1501.72 336.104 1494.26 326.708L1487.88 318.679C1481 310.011 1469.75 306.064 1458.96 308.531V308.531C1447.62 311.122 1435.84 306.628 1429.11 297.144L1427.1 294.305C1419.67 283.834 1406.96 278.45 1394.27 280.391L1373.96 283.498" stroke="#5FC1FF" stroke-width="6.61905" stroke-linecap="round"/>
<path d="M1584.3 349.263L1573.77 332.189C1566.78 320.846 1553.27 315.313 1540.33 318.494V318.494C1528.67 321.357 1516.42 317.17 1508.96 307.774L1502.59 299.745C1495.71 291.077 1484.46 287.13 1473.67 289.596V289.596C1462.33 292.188 1450.55 287.694 1443.82 278.21L1441.8 275.371C1434.37 264.9 1421.67 259.516 1408.98 261.457L1388.67 264.563" stroke="#5FC1FF" stroke-width="6.61905" stroke-linecap="round"/>
<path d="M890.284 405.014L903.541 355.541L953.015 342.284L989.232 378.501L975.975 427.975L926.502 441.232L890.284 405.014Z" stroke="#FFEF5E" stroke-width="5.29524"/>
</g>
<defs>
<filter id="filter0_d_1_2385" x="1084.03" y="117.57" width="205.941" height="212.697" filterUnits="userSpaceOnUse" color-interpolation-filters="sRGB">
<feFlood flood-opacity="0" result="BackgroundImageFix"/>
<feColorMatrix in="SourceAlpha" type="matrix" values="0 0 0 0 0 0 0 0 0 0 0 0 0 0 0 0 0 0 127 0" result="hardAlpha"/>
<feOffset dy="5.29524"/>
<feGaussianBlur stdDeviation="2.64762"/>
<feComposite in2="hardAlpha" operator="out"/>
<feColorMatrix type="matrix" values="0 0 0 0 0 0 0 0 0 0 0 0 0 0 0 0 0 0 0.11 0"/>
<feBlend mode="normal" in2="BackgroundImageFix" result="effect1_dropShadow_1_2385"/>
<feBlend mode="normal" in="SourceGraphic" in2="effect1_dropShadow_1_2385" result="shape"/>
</filter>
<filter id="filter1_d_1_2385" x="-374.604" y="148.677" width="1261.2" height="167.172" filterUnits="userSpaceOnUse" color-interpolation-filters="sRGB">
<feFlood flood-opacity="0" result="BackgroundImageFix"/>
<feColorMatrix in="SourceAlpha" type="matrix" values="0 0 0 0 0 0 0 0 0 0 0 0 0 0 0 0 0 0 127 0" result="hardAlpha"/>
<feOffset dy="5.29524"/>
<feGaussianBlur stdDeviation="2.64762"/>
<feComposite in2="hardAlpha" operator="out"/>
<feColorMatrix type="matrix" values="0 0 0 0 0.445833 0 0 0 0 0.443976 0 0 0 0 0.443976 0 0 0 0.25 0"/>
<feBlend mode="normal" in2="BackgroundImageFix" result="effect1_dropShadow_1_2385"/>
<feBlend mode="normal" in="SourceGraphic" in2="effect1_dropShadow_1_2385" result="shape"/>
</filter>
<clipPath id="clip0_1_2385">
<rect width="1955" height="436" fill="white" transform="translate(-357)"/>
</clipPath>
</defs>
</svg>
