<svg width="32" height="32" viewBox="0 0 32 32" fill="none" xmlns="http://www.w3.org/2000/svg">
<path d="M17.3125 7.25C17.3125 6.52513 16.7249 5.9375 16 5.9375C15.2751 5.9375 14.6875 6.52513 14.6875 7.25V16C14.6875 16.4525 14.9206 16.8732 15.3044 17.113L20.5544 20.3942C21.1691 20.7784 21.9788 20.5916 22.363 19.9769C22.7472 19.3622 22.5603 18.5524 21.9456 18.1683L17.3125 15.2726V7.25Z" fill="#5CC0FF"/>
<path fill-rule="evenodd" clip-rule="evenodd" d="M16 0.6875C7.54314 0.6875 0.6875 7.54314 0.6875 16C0.6875 24.4569 7.54314 31.3125 16 31.3125C24.4569 31.3125 31.3125 24.4569 31.3125 16C31.3125 7.54314 24.4569 0.6875 16 0.6875ZM3.3125 16C3.3125 8.99289 8.99289 3.3125 16 3.3125C23.0071 3.3125 28.6875 8.99289 28.6875 16C28.6875 23.0071 23.0071 28.6875 16 28.6875C8.99289 28.6875 3.3125 23.0071 3.3125 16Z" fill="#5CC0FF"/>
</svg>
