<svg width="42" height="42" viewBox="0 0 42 42" fill="none" xmlns="http://www.w3.org/2000/svg">
<path fill-rule="evenodd" clip-rule="evenodd" d="M18.7292 9.1875C18.4383 9.1875 18.1698 9.34357 18.0258 9.59633L12.1703 19.8745C11.3941 21.2369 11.0684 22.8098 11.2397 24.3685L11.8577 29.9924C11.9677 30.993 12.7532 31.7856 13.7528 31.9045L17.4576 32.3453C19.9034 32.6362 22.3832 32.384 24.7203 31.6067C25.8744 31.2228 26.7989 30.3467 27.2443 29.2148L30.2265 21.6364C30.2994 21.4511 30.3498 21.2577 30.3765 21.0604C30.6027 19.3942 29.1441 17.9887 27.4875 18.2764L21.5098 19.3146C19.6216 19.6426 17.9907 17.9763 18.3592 16.0955L19.5237 10.1528C19.6217 9.65267 19.2388 9.1875 18.7292 9.1875ZM15.745 8.29694C16.3559 7.22463 17.4951 6.56251 18.7292 6.5625C20.8911 6.56248 22.5154 8.53593 22.0997 10.6575L20.9353 16.6003C20.9303 16.6257 20.9329 16.6413 20.9365 16.6525C20.9408 16.6662 20.9496 16.6823 20.9643 16.6973C20.9789 16.7122 20.9948 16.7214 21.0085 16.726C21.0196 16.7298 21.035 16.7328 21.0606 16.7284L27.0383 15.6901C30.4441 15.0986 33.4427 17.9881 32.9777 21.4135C32.9226 21.8191 32.819 22.2166 32.6692 22.5976L29.687 30.176C28.9568 32.0318 27.4411 33.4681 25.5487 34.0975C22.8453 34.9967 19.9767 35.2884 17.1475 34.9519L13.4427 34.5112C11.2303 34.248 9.49177 32.4938 9.24841 30.2791L8.63041 24.6552C8.39868 22.5465 8.83937 20.4184 9.8895 18.5751L15.745 8.29694Z" fill="#5CC0FF"/>
</svg>
