<svg width="443" height="276" viewBox="0 0 443 276" fill="none" xmlns="http://www.w3.org/2000/svg">
<path d="M-39 256.5V0C-28.8616 20.3333 11.9717 62.4 94.1977 68C196.98 75 165.516 160 141.394 184C112.822 212.427 130.381 238.5 418.277 182C648.594 136.8 523.332 212.5 429.814 256.5H-39Z" fill="#FDFBFB" fill-opacity="0.35"/>
<path d="M436.106 268.737V286.237H-31.6589V137.237C-29.8971 151.07 -15.0625 182.037 30.1812 195.237C86.7358 211.737 53.4375 223.237 48.6806 251.237C43.9237 279.237 148.576 271.737 219.93 282.237C334.519 232.237 411.793 252.403 436.106 268.737Z" fill="#80CAFF" fill-opacity="0.38"/>
<path d="M142.967 180.91C157.65 138.891 132.479 135.525 103.113 126.346C81.0877 122.266 63.2581 102.378 33.3673 109.007C3.47647 115.637 -9.63356 83 -9.63356 83V288H454.985V254.343C436.107 260.803 378.003 275.557 296.616 282.9C215.229 290.244 170.061 269.302 157.65 257.913C146.638 249.754 128.284 222.93 142.967 180.91Z" fill="url(#paint0_linear_31_45)"/>
<defs>
<linearGradient id="paint0_linear_31_45" x1="226.347" y1="262.503" x2="-24.7696" y2="444.535" gradientUnits="userSpaceOnUse">
<stop stop-color="#A3DBFF"/>
<stop offset="1" stop-color="#A3DBFF" stop-opacity="0"/>
</linearGradient>
</defs>
</svg>
