<svg width="77" height="82" viewBox="0 0 77 82" fill="none" xmlns="http://www.w3.org/2000/svg">
<path fill-rule="evenodd" clip-rule="evenodd" d="M59.946 6.17643C59.9919 5.88416 60.0533 5.60193 60.1302 5.32975L77 19.4852V58.3792L59.6256 72.958C59.5852 72.2935 59.5649 71.6228 59.5649 70.946V50.1272H37.8426V70.8303C37.8426 72.5266 37.7156 74.223 37.4615 75.9193C37.2075 77.5386 36.477 78.8879 35.2702 79.9674C34.0634 80.9698 32.0309 81.471 29.1727 81.471C26.251 81.471 24.1868 80.9698 22.98 79.9674C21.7732 78.8879 21.0427 77.5386 20.7887 75.9193C20.5346 74.3001 20.4076 72.6423 20.4076 70.946V11.2655C20.4076 9.49201 20.5346 7.79567 20.7887 6.17643C21.0427 4.55719 21.7732 3.24638 22.98 2.24399C24.1232 1.1645 26.1558 0.624756 29.0775 0.624756C31.9992 0.624756 34.0634 1.1645 35.2702 2.24399C36.477 3.24638 37.2075 4.55719 37.4615 6.17643C37.7156 7.79567 37.8426 9.45346 37.8426 11.1498V32.0842H59.5649V11.2655C59.5649 9.49201 59.692 7.79567 59.946 6.17643Z" fill="#E4F5FF"/>
<path d="M1 59.7627C7.47877 55.1126 10.5861 52.9716 11.7244 52.1989C11.611 45.4729 16.0568 40.8546 18.4681 38.3578C20.4613 36.4513 21.9919 34.1726 22.908 31.7479C23.5927 29.9429 25.412 25.1473 29.5635 25.3165C30.2504 25.3525 30.8905 25.5344 31.4399 25.8495C31.9892 26.1646 32.4347 26.6055 32.7459 27.1419C33.024 27.5926 33.1792 28.1181 33.2001 28.6804C33.2211 29.2428 33.1073 29.828 32.867 30.3941L30.6888 35.7639L43.4201 25.7541C44.3596 25.012 45.5001 24.6026 46.5915 24.6158C47.6829 24.6289 48.6361 25.0635 49.2419 25.8242C49.5433 26.2066 49.7462 26.6601 49.8385 27.1574L51.5195 25.8358C51.9831 25.4664 52.5018 25.175 53.0456 24.9782C53.5894 24.7813 54.1477 24.6831 54.6882 24.689C55.2288 24.695 55.741 24.805 56.1955 25.0128C56.6499 25.2205 57.0376 25.522 57.3362 25.8997C57.6348 26.2775 57.8384 26.7241 57.9354 27.2139C58.0324 27.7037 58.0209 28.227 57.9014 28.7538C57.7819 29.2805 57.5569 29.8003 57.2392 30.2832C56.9216 30.7661 56.5176 31.2027 56.0505 31.5677C56.4949 31.7736 56.874 32.0706 57.1661 32.4418C57.7623 33.21 57.9597 34.2388 57.715 35.3025C57.4702 36.3662 56.8033 37.378 55.8606 38.1159L53.0032 40.3625C53.3202 40.5529 53.5951 40.7943 53.8186 41.0787C54.4149 41.847 54.6123 42.8759 54.3674 43.9398C54.1226 45.0036 53.4555 46.0154 52.5125 46.7533L43.5638 53.8281C42.7445 54.4726 41.9348 55.1374 41.1245 55.8027L41.0897 55.8312C38.4667 57.9847 35.7546 60.2113 32.6408 61.8555C29.6664 63.4265 26.1644 64.2456 22.2358 64.308C20.9257 65.464 17.565 68.4518 11.1943 74.2475C10.4395 73.8236 9.80036 73.2619 9.30435 72.58L9.31359 72.5908C17.805 64.8649 21.0453 62.0389 21.2141 61.8918L21.2208 61.8859C21.4687 61.6715 21.7677 61.5264 22.0735 61.4721C22.3794 61.4177 22.6758 61.457 22.9189 61.5841C25.8214 61.6235 28.8395 60.916 31.6687 59.5328C34.4478 58.0651 36.8952 56.0559 39.4864 53.9287L39.4918 53.9242C40.2917 53.2675 41.0911 52.6113 41.8983 51.9735L50.9751 44.7977C51.128 44.6824 51.2608 44.5431 51.3659 44.3882C51.4709 44.2333 51.5459 44.0658 51.5865 43.8957C51.6272 43.7255 51.6326 43.5561 51.6024 43.3974C51.5723 43.2387 51.5072 43.0939 51.4111 42.9716C51.3149 42.8493 51.1896 42.7519 51.0425 42.6852C50.8954 42.6185 50.7294 42.5837 50.5545 42.5831C50.3796 42.5824 50.1991 42.6158 50.0238 42.6813C49.8485 42.7468 49.6818 42.843 49.5336 42.9644L39.5908 50.7818C39.2715 51.0328 38.8843 51.1705 38.5144 51.1647C38.1445 51.1588 37.8221 51.0098 37.6182 50.7505C37.4143 50.4912 37.3456 50.1428 37.4272 49.7819C37.5088 49.421 37.734 49.0773 38.0533 48.8263L47.9961 41.0089C48.2697 40.795 48.5623 40.6072 48.8681 40.4493L54.323 36.1604C54.4759 36.045 54.6086 35.9058 54.7136 35.7509C54.8185 35.5959 54.8935 35.4285 54.934 35.2584C54.9746 35.0883 54.98 34.9189 54.9498 34.7602C54.9197 34.6016 54.8546 34.4569 54.7585 34.3346C54.6623 34.2123 54.537 34.1149 54.39 34.0482C54.2429 33.9814 54.0771 33.9467 53.9022 33.9459C53.7273 33.9452 53.5469 33.9786 53.3716 34.044C53.1963 34.1094 53.0296 34.2056 52.8814 34.3268L36.6922 47.0553C36.373 47.3063 35.9858 47.444 35.6159 47.4381C35.246 47.4322 34.9236 47.2833 34.7197 47.024L34.7169 47.0193C34.5745 46.9044 34.4676 46.755 34.4041 46.5818C34.3406 46.4087 34.322 46.2161 34.3497 46.0181C34.3773 45.82 34.4506 45.6215 34.564 45.4368C34.6775 45.2521 34.8284 45.086 35.0058 44.9503L54.4984 29.6246C54.6512 29.5093 54.784 29.3701 54.8889 29.2152C54.9939 29.0603 55.0688 28.8928 55.1094 28.7227C55.15 28.5526 55.1554 28.3832 55.1252 28.2246C55.0951 28.0659 55.03 27.9212 54.9339 27.7989C54.8377 27.6767 54.7125 27.5793 54.5654 27.5126C54.4184 27.4458 54.2525 27.4111 54.0776 27.4104C53.9027 27.4097 53.7223 27.443 53.5471 27.5084C53.3718 27.5739 53.2051 27.67 53.057 27.7913L33.5644 43.117C33.2452 43.368 32.858 43.5057 32.4881 43.4998C32.1182 43.4939 31.7958 43.345 31.5919 43.0857C31.5571 43.0078 31.5043 42.9407 31.4369 42.8885C31.233 42.6291 31.1643 42.2807 31.2459 41.9199C31.3275 41.559 31.5526 41.2153 31.8719 40.9643L46.3989 29.5427C46.5517 29.4274 46.6845 29.2881 46.7894 29.1333C46.8944 28.9784 46.9694 28.811 47.0099 28.6409C47.0505 28.4708 47.0559 28.3014 47.0258 28.1428C46.9956 27.9841 46.9306 27.8394 46.8344 27.7171C46.7383 27.5949 46.613 27.4975 46.466 27.4308C46.3189 27.3641 46.1531 27.3293 45.9782 27.3286C45.8033 27.3279 45.623 27.3613 45.4477 27.4267C45.2724 27.4921 45.1058 27.5883 44.9576 27.7096L29.9522 39.5074C28.5833 40.5837 27.7016 40.2667 27.3866 40.0802C27.0697 39.8949 26.4048 39.2985 27.0191 37.7861L30.2414 29.8429C30.3153 29.6597 30.348 29.4712 30.3371 29.2908C30.3263 29.1105 30.2721 28.9429 30.1787 28.8002C30.0506 28.5798 29.8685 28.3977 29.6444 28.2659C29.4203 28.1341 29.1592 28.0555 28.8782 28.0354C27.996 27.9997 26.9856 28.4782 25.5769 32.1919C24.5032 35.0405 22.7146 37.7204 20.3851 39.9709C17.4714 42.9875 14.3798 46.6439 14.5782 51.8742C14.4407 52.6164 14.0813 53.3475 13.5444 53.9768C13.5178 53.9941 11.0538 55.6265 3.741 60.8599C2.98192 60.4094 2.13613 60.06 1.21836 59.8209C1.14499 59.8024 1.0722 59.783 1 59.7627Z" fill="#FFDC61" stroke="#FFDC61" stroke-width="0.475"/>
</svg>
