<svg width="112" height="35" viewBox="0 0 112 35" fill="none" xmlns="http://www.w3.org/2000/svg">
<path fill-rule="evenodd" clip-rule="evenodd" d="M25.8194 2.33755C25.8387 2.21448 25.8645 2.09565 25.8969 1.98105L33 7.94124V24.3177L25.6845 30.4561C25.6675 30.1763 25.6589 29.8939 25.6589 29.6089V20.8431H16.5127V29.5602C16.5127 30.2745 16.4592 30.9887 16.3522 31.703C16.2453 32.3848 15.9377 32.9529 15.4296 33.4074C14.9215 33.8295 14.0657 34.0405 12.8622 34.0405C11.632 34.0405 10.7629 33.8295 10.2547 33.4074C9.74661 32.9529 9.43906 32.3848 9.33209 31.703C9.22512 31.0212 9.17163 30.3232 9.17163 29.6089V4.4803C9.17163 3.73358 9.22512 3.01933 9.33209 2.33755C9.43906 1.65576 9.74661 1.10384 10.2547 0.681785C10.7361 0.227262 11.5919 0 12.8221 0C14.0523 0 14.9215 0.227262 15.4296 0.681785C15.9377 1.10384 16.2453 1.65576 16.3522 2.33755C16.4592 3.01933 16.5127 3.71735 16.5127 4.4316V13.2461H25.6589V4.4803C25.6589 3.73358 25.7124 3.01933 25.8194 2.33755Z" fill="#5CC0FF"/>
<path d="M1 24.9002C3.7279 22.9422 5.03624 22.0407 5.51553 21.7154C5.46781 18.8834 7.33971 16.9389 8.355 15.8876C9.19424 15.0848 9.8387 14.1254 10.2244 13.1044C10.5127 12.3444 11.2788 10.3252 13.0267 10.3965C13.316 10.4117 13.5855 10.4882 13.8168 10.6209C14.0481 10.7536 14.2357 10.9392 14.3667 11.1651C14.4838 11.3549 14.5491 11.5761 14.558 11.8129C14.5668 12.0497 14.5189 12.2961 14.4177 12.5344L13.5005 14.7954L18.8611 10.5807C19.2567 10.2683 19.7369 10.0959 20.1964 10.1014C20.656 10.107 21.0573 10.29 21.3124 10.6102C21.4393 10.7713 21.5247 10.9622 21.5636 11.1716L22.2714 10.6151C22.4666 10.4596 22.685 10.3369 22.9139 10.254C23.1429 10.1712 23.378 10.1298 23.6056 10.1323C23.8332 10.1348 24.0489 10.1811 24.2402 10.2686C24.4315 10.3561 24.5948 10.483 24.7205 10.6421C24.8462 10.8011 24.932 10.9892 24.9728 11.1954C25.0137 11.4016 25.0088 11.622 24.9585 11.8438C24.9082 12.0655 24.8134 12.2844 24.6797 12.4877C24.5459 12.6911 24.3758 12.8749 24.1792 13.0286C24.3663 13.1153 24.5259 13.2403 24.6489 13.3966C24.8999 13.7201 24.983 14.1533 24.88 14.6011C24.7769 15.049 24.4961 15.475 24.0992 15.7857L22.8961 16.7316C23.0295 16.8118 23.1453 16.9135 23.2394 17.0332C23.4905 17.3567 23.5736 17.7899 23.4705 18.2379C23.3674 18.6858 23.0865 19.1118 22.6895 19.4225L18.9216 22.4014C18.5766 22.6727 18.2357 22.9526 17.8945 23.2328L17.8799 23.2448C16.7754 24.1515 15.6335 25.089 14.3225 25.7813C13.0701 26.4428 11.5955 26.7877 9.94137 26.814C9.38976 27.3007 7.97476 28.5587 5.29234 30.999C4.97455 30.8205 4.70541 30.584 4.49657 30.2969L4.50046 30.3015C8.0758 27.0484 9.44014 25.8586 9.51119 25.7966L9.51403 25.7941C9.61841 25.7039 9.7443 25.6428 9.87307 25.6199C10.0018 25.597 10.1266 25.6135 10.229 25.667C11.4511 25.6837 12.7219 25.3857 13.9131 24.8033C15.0833 24.1854 16.1138 23.3394 17.2048 22.4437L17.2071 22.4418C17.5439 22.1653 17.8805 21.889 18.2203 21.6205L22.0421 18.5991C22.1065 18.5505 22.1625 18.4919 22.2067 18.4267C22.2509 18.3615 22.2825 18.2909 22.2996 18.2193C22.3167 18.1477 22.319 18.0763 22.3063 18.0095C22.2936 17.9427 22.2662 17.8817 22.2257 17.8302C22.1852 17.7787 22.1324 17.7377 22.0705 17.7096C22.0086 17.6815 21.9387 17.6669 21.865 17.6666C21.7914 17.6663 21.7154 17.6804 21.6416 17.708C21.5678 17.7355 21.4976 17.7761 21.4352 17.8272L17.2487 21.1187C17.1143 21.2244 16.9513 21.2824 16.7955 21.2799C16.6398 21.2775 16.504 21.2147 16.4182 21.1055C16.3324 20.9963 16.3034 20.8496 16.3378 20.6977C16.3721 20.5458 16.4669 20.401 16.6014 20.2953L20.7879 17.0038C20.903 16.9137 21.0262 16.8347 21.155 16.7682L23.4518 14.9623C23.5161 14.9138 23.5721 14.8551 23.6162 14.7899C23.6604 14.7247 23.692 14.6542 23.7091 14.5825C23.7262 14.5109 23.7284 14.4396 23.7157 14.3728C23.703 14.306 23.6756 14.2451 23.6351 14.1936C23.5947 14.1421 23.5419 14.1011 23.48 14.073C23.4181 14.0449 23.3482 14.0302 23.2746 14.0299C23.201 14.0296 23.125 14.0437 23.0512 14.0712C22.9774 14.0988 22.9072 14.1392 22.8448 14.1903L16.0283 19.5497C15.8939 19.6553 15.7309 19.7133 15.5751 19.7109C15.4194 19.7084 15.2836 19.6457 15.1978 19.5365L15.1966 19.5345C15.1366 19.4861 15.0916 19.4232 15.0649 19.3503C15.0382 19.2774 15.0303 19.1963 15.042 19.1129C15.0536 19.0296 15.0844 18.946 15.1322 18.8682C15.18 18.7904 15.2435 18.7205 15.3182 18.6633L23.5256 12.2104C23.59 12.1619 23.6459 12.1032 23.6901 12.038C23.7343 11.9728 23.7658 11.9023 23.7829 11.8307C23.8 11.7591 23.8023 11.6877 23.7896 11.6209C23.7769 11.5541 23.7495 11.4932 23.709 11.4417C23.6685 11.3902 23.6158 11.3492 23.5539 11.3211C23.4919 11.293 23.4221 11.2784 23.3485 11.2781C23.2748 11.2778 23.1989 11.2919 23.1251 11.3194C23.0513 11.347 22.9811 11.3875 22.9187 11.4385L14.7113 17.8914C14.5769 17.9971 14.4139 18.0551 14.2581 18.0526C14.1024 18.0501 13.9667 17.9874 13.8808 17.8782C13.8661 17.8454 13.8439 17.8172 13.8155 17.7952C13.7297 17.686 13.7008 17.5393 13.7351 17.3874C13.7695 17.2354 13.8643 17.0907 13.9987 16.985L20.1153 12.1759C20.1797 12.1274 20.2356 12.0688 20.2798 12.0035C20.324 11.9383 20.3555 11.8678 20.3726 11.7962C20.3897 11.7246 20.392 11.6533 20.3793 11.5865C20.3666 11.5197 20.3392 11.4588 20.2987 11.4073C20.2582 11.3558 20.2055 11.3148 20.1436 11.2867C20.0817 11.2586 20.0118 11.244 19.9382 11.2437C19.8646 11.2434 19.7886 11.2574 19.7148 11.285C19.641 11.3125 19.5709 11.353 19.5085 11.4041L13.1904 16.3716C12.614 16.8248 12.2428 16.6913 12.1102 16.6128C11.9767 16.5347 11.6968 16.2837 11.9554 15.6469L13.3122 12.3023C13.3433 12.2252 13.357 12.1458 13.3525 12.0699C13.3479 11.994 13.3251 11.9234 13.2858 11.8633C13.2318 11.7705 13.1552 11.6938 13.0608 11.6383C12.9664 11.5828 12.8565 11.5497 12.7382 11.5413C12.3668 11.5262 11.9413 11.7277 11.3482 13.2914C10.8961 14.4908 10.143 15.6192 9.16214 16.5668C7.93534 17.8369 6.63361 19.3764 6.71712 21.5787C6.65926 21.8912 6.50792 22.199 6.28184 22.464C6.27066 22.4713 5.23318 23.1586 2.15411 25.3621C1.83449 25.1725 1.47837 25.0253 1.09194 24.9247C1.06105 24.9169 1.0304 24.9087 1 24.9002Z" fill="#FFDC61" stroke="#FFDC61" stroke-width="0.2"/>
<path d="M59.86 24.18C59.3667 24.18 59.0133 24.1067 58.8 23.96C58.6 23.8133 58.4733 23.62 58.42 23.38C58.3667 23.14 58.34 22.8933 58.34 22.64V11.72C58.34 11.4533 58.3667 11.2067 58.42 10.98C58.4733 10.7533 58.6067 10.5667 58.82 10.42C59.0333 10.2733 59.3867 10.2 59.88 10.2C60.3733 10.2 60.72 10.2733 60.92 10.42C61.1333 10.5667 61.26 10.7533 61.3 10.98C61.3533 11.2067 61.38 11.46 61.38 11.74V22.66C61.38 22.9133 61.3533 23.16 61.3 23.4C61.26 23.6267 61.1333 23.8133 60.92 23.96C60.7067 24.1067 60.3533 24.18 59.86 24.18ZM51.38 24.18C50.8867 24.18 50.5333 24.1067 50.32 23.96C50.1067 23.8133 49.9733 23.62 49.92 23.38C49.88 23.14 49.86 22.8933 49.86 22.64V11.72C49.86 11.4533 49.8867 11.2067 49.94 10.98C49.9933 10.7533 50.12 10.5667 50.32 10.42C50.5333 10.2733 50.8933 10.2 51.4 10.2C51.8933 10.2 52.24 10.2733 52.44 10.42C52.6533 10.5667 52.78 10.7533 52.82 10.98C52.8733 11.2067 52.9 11.46 52.9 11.74V22.66C52.9 22.9133 52.8733 23.16 52.82 23.4C52.78 23.6267 52.6533 23.8133 52.44 23.96C52.2267 24.1067 51.8733 24.18 51.38 24.18ZM52.42 18.46V15.82H58.66V18.46H52.42ZM68.4222 24.36C67.4889 24.36 66.6822 24.2067 66.0022 23.9C65.3355 23.5933 64.7889 23.1933 64.3622 22.7C63.9355 22.1933 63.6155 21.6333 63.4022 21.02C63.2022 20.4067 63.1022 19.7933 63.1022 19.18C63.1022 18.18 63.3289 17.2933 63.7822 16.52C64.2355 15.7467 64.8622 15.14 65.6622 14.7C66.4622 14.2467 67.3822 14.02 68.4222 14.02C69.1955 14.02 69.8622 14.1467 70.4222 14.4C70.9955 14.64 71.4622 14.96 71.8222 15.36C72.1955 15.7467 72.4689 16.1667 72.6422 16.62C72.8289 17.0733 72.9222 17.5067 72.9222 17.92C72.9222 18.6533 72.7422 19.2 72.3822 19.56C72.0355 19.9067 71.5889 20.08 71.0422 20.08H66.2822C66.3089 20.4267 66.4289 20.72 66.6422 20.96C66.8689 21.2 67.1489 21.3867 67.4822 21.52C67.8155 21.6533 68.1689 21.72 68.5422 21.72C68.8622 21.72 69.1422 21.7067 69.3822 21.68C69.6222 21.64 69.8289 21.5933 70.0022 21.54C70.1755 21.4733 70.3355 21.4133 70.4822 21.36C70.6289 21.2933 70.7555 21.24 70.8622 21.2C70.9822 21.16 71.0955 21.1333 71.2022 21.12C71.4022 21.1067 71.5822 21.1667 71.7422 21.3C71.9155 21.42 72.0689 21.6067 72.2022 21.86C72.2955 22.0067 72.3555 22.1467 72.3822 22.28C72.4222 22.4133 72.4422 22.5467 72.4422 22.68C72.4422 23 72.2755 23.2867 71.9422 23.54C71.6222 23.7933 71.1622 23.9933 70.5622 24.14C69.9755 24.2867 69.2622 24.36 68.4222 24.36ZM66.2822 18.44H69.4422C69.6555 18.44 69.8089 18.4067 69.9022 18.34C70.0089 18.26 70.0622 18.1133 70.0622 17.9C70.0622 17.66 69.9889 17.4533 69.8422 17.28C69.6955 17.0933 69.4955 16.9533 69.2422 16.86C69.0022 16.7533 68.7222 16.7 68.4022 16.7C67.9889 16.7 67.6222 16.78 67.3022 16.94C66.9822 17.1 66.7289 17.3133 66.5422 17.58C66.3689 17.8467 66.2822 18.1333 66.2822 18.44ZM78.4444 24.18C77.8977 24.18 77.411 24.1467 76.9844 24.08C76.571 24.0267 76.211 23.92 75.9044 23.76C75.611 23.6 75.371 23.38 75.1844 23.1C74.9977 22.82 74.8577 22.46 74.7644 22.02C74.6844 21.5667 74.6444 21.0133 74.6444 20.36V11.12C74.6444 10.8533 74.6644 10.6067 74.7044 10.38C74.7577 10.1533 74.891 9.96667 75.1044 9.82C75.3177 9.67333 75.6644 9.6 76.1444 9.6C76.6244 9.6 76.9644 9.67333 77.1644 9.82C77.3777 9.96667 77.511 10.1533 77.5644 10.38C77.6177 10.6067 77.6444 10.8533 77.6444 11.12V20.22C77.6444 20.4333 77.651 20.6133 77.6644 20.76C77.691 20.8933 77.731 21 77.7844 21.08C77.851 21.16 77.9377 21.2133 78.0444 21.24C78.151 21.2667 78.291 21.28 78.4644 21.28C78.6244 21.28 78.7844 21.3 78.9444 21.34C79.1177 21.38 79.2644 21.5 79.3844 21.7C79.5044 21.9 79.5644 22.2333 79.5644 22.7C79.5644 23.18 79.5044 23.5267 79.3844 23.74C79.2644 23.9533 79.1177 24.08 78.9444 24.12C78.7844 24.16 78.6177 24.18 78.4444 24.18ZM86.26 24C85.6067 24 85.0267 23.8733 84.52 23.62C84.0267 23.3533 83.6133 23 83.28 22.56C82.96 22.1067 82.7133 21.5867 82.54 21C82.38 20.4133 82.3067 19.78 82.32 19.1C82.32 18.4467 82.4067 17.8267 82.58 17.24C82.7533 16.64 83 16.1133 83.32 15.66C83.6533 15.1933 84.06 14.8333 84.54 14.58C85.0333 14.3133 85.6067 14.18 86.26 14.18C86.8467 14.18 87.4133 14.3133 87.96 14.58C88.52 14.8467 89.0133 15.2133 89.44 15.68C89.8667 16.1333 90.2 16.66 90.44 17.26C90.6933 17.86 90.82 18.4933 90.82 19.16C90.82 19.8267 90.6933 20.46 90.44 21.06C90.2 21.6467 89.8667 22.16 89.44 22.6C89.0133 23.04 88.5267 23.3867 87.98 23.64C87.4333 23.88 86.86 24 86.26 24ZM82.4 28.32C81.92 28.32 81.5733 28.2467 81.36 28.1C81.16 27.9667 81.0333 27.7867 80.98 27.56C80.94 27.3467 80.92 27.1133 80.92 26.86V15.68C80.92 15.4133 80.94 15.1733 80.98 14.96C81.02 14.7333 81.14 14.5467 81.34 14.4C81.5533 14.2533 81.9 14.18 82.38 14.18C82.7933 14.18 83.12 14.24 83.36 14.36C83.6133 14.48 83.7933 14.6667 83.9 14.92V26.84C83.9133 27.0933 83.8933 27.3333 83.84 27.56C83.7867 27.7867 83.6533 27.9667 83.44 28.1C83.24 28.2467 82.8933 28.32 82.4 28.32ZM85.84 21.18C86.2133 21.18 86.5467 21.0933 86.84 20.92C87.1333 20.7333 87.3667 20.4867 87.54 20.18C87.7267 19.8733 87.82 19.5333 87.82 19.16C87.82 18.7733 87.7333 18.4333 87.56 18.14C87.3867 17.8333 87.1533 17.5933 86.86 17.42C86.5667 17.2467 86.2333 17.16 85.86 17.16C85.5 17.16 85.1667 17.2533 84.86 17.44C84.5667 17.6133 84.3333 17.8533 84.16 18.16C84 18.4533 83.92 18.7867 83.92 19.16C83.92 19.5333 84.0067 19.8733 84.18 20.18C84.3533 20.4867 84.5867 20.7333 84.88 20.92C85.1733 21.0933 85.4933 21.18 85.84 21.18ZM97.4152 24.36C96.4818 24.36 95.6752 24.2067 94.9952 23.9C94.3285 23.5933 93.7818 23.1933 93.3552 22.7C92.9285 22.1933 92.6085 21.6333 92.3952 21.02C92.1952 20.4067 92.0952 19.7933 92.0952 19.18C92.0952 18.18 92.3218 17.2933 92.7752 16.52C93.2285 15.7467 93.8552 15.14 94.6552 14.7C95.4552 14.2467 96.3752 14.02 97.4152 14.02C98.1885 14.02 98.8552 14.1467 99.4152 14.4C99.9885 14.64 100.455 14.96 100.815 15.36C101.188 15.7467 101.462 16.1667 101.635 16.62C101.822 17.0733 101.915 17.5067 101.915 17.92C101.915 18.6533 101.735 19.2 101.375 19.56C101.028 19.9067 100.582 20.08 100.035 20.08H95.2752C95.3018 20.4267 95.4218 20.72 95.6352 20.96C95.8618 21.2 96.1418 21.3867 96.4752 21.52C96.8085 21.6533 97.1618 21.72 97.5352 21.72C97.8552 21.72 98.1352 21.7067 98.3752 21.68C98.6152 21.64 98.8218 21.5933 98.9952 21.54C99.1685 21.4733 99.3285 21.4133 99.4752 21.36C99.6218 21.2933 99.7485 21.24 99.8552 21.2C99.9752 21.16 100.088 21.1333 100.195 21.12C100.395 21.1067 100.575 21.1667 100.735 21.3C100.908 21.42 101.062 21.6067 101.195 21.86C101.288 22.0067 101.348 22.1467 101.375 22.28C101.415 22.4133 101.435 22.5467 101.435 22.68C101.435 23 101.268 23.2867 100.935 23.54C100.615 23.7933 100.155 23.9933 99.5552 24.14C98.9685 24.2867 98.2552 24.36 97.4152 24.36ZM95.2752 18.44H98.4352C98.6485 18.44 98.8018 18.4067 98.8952 18.34C99.0018 18.26 99.0552 18.1133 99.0552 17.9C99.0552 17.66 98.9818 17.4533 98.8352 17.28C98.6885 17.0933 98.4885 16.9533 98.2352 16.86C97.9952 16.7533 97.7152 16.7 97.3952 16.7C96.9818 16.7 96.6152 16.78 96.2952 16.94C95.9752 17.1 95.7218 17.3133 95.5352 17.58C95.3618 17.8467 95.2752 18.1333 95.2752 18.44ZM105.097 24.18C104.604 24.18 104.251 24.1133 104.037 23.98C103.837 23.8333 103.711 23.64 103.657 23.4C103.617 23.16 103.597 22.9133 103.597 22.66V15.68C103.597 15.4133 103.624 15.1667 103.677 14.94C103.731 14.7133 103.857 14.5333 104.057 14.4C104.271 14.2533 104.624 14.18 105.117 14.18C105.584 14.18 105.917 14.2467 106.117 14.38C106.331 14.5 106.464 14.6467 106.517 14.82C106.571 14.98 106.597 15.12 106.597 15.24L106.357 15.36C106.384 15.3067 106.451 15.2133 106.557 15.08C106.677 14.9333 106.837 14.7867 107.037 14.64C107.237 14.48 107.477 14.3467 107.757 14.24C108.051 14.1333 108.384 14.08 108.757 14.08C108.904 14.08 109.064 14.0933 109.237 14.12C109.424 14.1333 109.611 14.1733 109.797 14.24C109.997 14.2933 110.177 14.3733 110.337 14.48C110.497 14.5733 110.624 14.6933 110.717 14.84C110.824 14.9867 110.877 15.1667 110.877 15.38C110.877 15.9267 110.751 16.3933 110.497 16.78C110.244 17.1533 109.924 17.34 109.537 17.34C109.311 17.34 109.151 17.32 109.057 17.28C108.964 17.24 108.884 17.2 108.817 17.16C108.764 17.12 108.697 17.0867 108.617 17.06C108.537 17.02 108.391 17 108.177 17C107.977 17 107.784 17.0267 107.597 17.08C107.424 17.1333 107.257 17.22 107.097 17.34C106.951 17.4467 106.831 17.5867 106.737 17.76C106.657 17.92 106.617 18.1 106.617 18.3V22.7C106.617 22.9533 106.591 23.2 106.537 23.44C106.497 23.6667 106.371 23.8467 106.157 23.98C105.944 24.1133 105.591 24.18 105.097 24.18Z" fill="#5CC0FF"/>
</svg>
