<svg width="50" height="50" viewBox="0 0 50 50" fill="none" xmlns="http://www.w3.org/2000/svg">
<rect width="50" height="50" rx="6" fill="#ABDFFF"/>
<path fill-rule="evenodd" clip-rule="evenodd" d="M41.1459 24.9999C41.1459 24.137 40.4463 23.4374 39.5834 23.4374H10.4167C9.55374 23.4374 8.85419 24.137 8.85419 24.9999C8.85419 25.8629 9.55374 26.5624 10.4167 26.5624H39.5834C40.4463 26.5624 41.1459 25.8629 41.1459 24.9999Z" fill="black"/>
<path fill-rule="evenodd" clip-rule="evenodd" d="M41.1459 14.5833C41.1459 13.7203 40.4463 13.0208 39.5834 13.0208H10.4167C9.55374 13.0208 8.85419 13.7203 8.85419 14.5833C8.85419 15.4462 9.55374 16.1458 10.4167 16.1458H39.5834C40.4463 16.1458 41.1459 15.4462 41.1459 14.5833Z" fill="black"/>
<path fill-rule="evenodd" clip-rule="evenodd" d="M41.1459 35.4166C41.1459 34.5536 40.4463 33.8541 39.5834 33.8541H10.4167C9.55374 33.8541 8.85419 34.5536 8.85419 35.4166C8.85419 36.2795 9.55374 36.9791 10.4167 36.9791H39.5834C40.4463 36.9791 41.1459 36.2795 41.1459 35.4166Z" fill="black"/>
</svg>
