<svg width="24" height="24" viewBox="0 0 24 24" fill="none" xmlns="http://www.w3.org/2000/svg">
<path fill-rule="evenodd" clip-rule="evenodd" d="M12.4516 15.366C10.1668 17.1959 6.82237 17.0519 4.70439 14.9339C2.43187 12.6614 2.43187 8.9769 4.70439 6.70439C6.9769 4.43187 10.6614 4.43187 12.9339 6.70439C15.0519 8.82237 15.1959 12.1668 13.366 14.4516L17.8106 18.8962C18.0631 19.1487 18.0631 19.5581 17.8106 19.8106C17.5581 20.0631 17.1487 20.0631 16.8962 19.8106L12.4516 15.366ZM5.61878 14.0195C3.85126 12.252 3.85126 9.38629 5.61878 7.61878C7.38629 5.85126 10.252 5.85126 12.0195 7.61878C13.7857 9.38499 13.787 12.2478 12.0234 14.0156C12.0221 14.0169 12.0208 14.0182 12.0195 14.0195C12.0182 14.0208 12.0169 14.0221 12.0156 14.0234C10.2478 15.787 7.38499 15.7857 5.61878 14.0195Z" fill="#3F3F3F"/>
</svg>
