<svg width="42" height="42" viewBox="0 0 42 42" fill="none" xmlns="http://www.w3.org/2000/svg">
<path fill-rule="evenodd" clip-rule="evenodd" d="M17.9832 7.25389C19.132 5.14783 21.9908 5.14784 23.1396 7.25389L26.6575 13.7035C26.9818 14.298 27.5422 14.7037 28.1811 14.8064L34.0228 15.745C36.5693 16.1542 37.4625 19.5745 35.4793 21.3224L31.2229 25.0739C30.6255 25.6004 30.3446 26.431 30.4897 27.2418L31.682 33.9027C32.1491 36.512 29.5743 38.5392 27.3651 37.3017L21.5534 34.0463C20.9325 33.6985 20.1903 33.6985 19.5694 34.0463L13.7577 37.3017C11.5485 38.5392 8.97374 36.5119 9.44078 33.9027L10.6331 27.2417C10.7782 26.431 10.4973 25.6004 9.89986 25.0739L5.64347 21.3224C3.66034 19.5745 4.55355 16.1542 7.09999 15.745L12.9417 14.8064C13.5806 14.7037 14.141 14.298 14.4653 13.7035L17.9832 7.25389ZM20.9297 8.61804C20.7656 8.31717 20.3572 8.31717 20.1931 8.61804L16.6752 15.0677C15.9618 16.3756 14.7287 17.2681 13.3233 17.494L7.48155 18.4326C7.11777 18.491 6.99018 18.9797 7.27348 19.2294L11.5299 22.9808C12.8442 24.1392 13.4622 25.9665 13.1429 27.7502L11.9506 34.4112C11.8839 34.7839 12.2517 35.0735 12.5673 34.8967L18.3791 31.6413C19.7451 30.8761 21.3777 30.8761 22.7437 31.6413L28.5555 34.8967C28.8711 35.0735 29.2389 34.7839 29.1722 34.4112L27.9799 27.7502C27.6606 25.9665 28.2786 24.1392 29.5929 22.9808L33.8493 19.2294C34.1326 18.9797 34.005 18.491 33.6413 18.4326L27.7995 17.494C26.3941 17.2681 25.161 16.3756 24.4476 15.0677L20.9297 8.61804Z" fill="#5CC0FF"/>
</svg>
