<svg width="96" height="46" viewBox="0 0 96 46" fill="none" xmlns="http://www.w3.org/2000/svg">
<path fill-rule="evenodd" clip-rule="evenodd" d="M11 1C5.47715 1 1 5.47715 1 11V18.0323V19.3871V45C1.85803 40.08 6.17286 31.0363 14.4455 29.3871H85C90.5229 29.3871 95 24.9099 95 19.3871V11C95 5.47715 90.5229 1 85 1H11Z" fill="white" fill-opacity="0.58"/>
<path d="M1 45H0.5L1.49257 45.0859L1 45ZM14.4455 29.3871V28.8871H14.3962L14.3478 28.8967L14.4455 29.3871ZM1.5 11C1.5 5.75329 5.75329 1.5 11 1.5V0.5C5.20101 0.5 0.5 5.201 0.5 11H1.5ZM1.5 18.0323V11H0.5V18.0323H1.5ZM1.5 19.3871V18.0323H0.5V19.3871H1.5ZM1.5 45V19.3871H0.5V45H1.5ZM14.3478 28.8967C10.0486 29.7538 6.80356 32.5275 4.53657 35.6748C2.27136 38.8195 0.949139 42.3813 0.507434 44.9141L1.49257 45.0859C1.90889 42.6987 3.1731 39.2786 5.34798 36.2592C7.52108 33.2423 10.5698 30.6696 14.5433 29.8774L14.3478 28.8967ZM85 28.8871H14.4455V29.8871H85V28.8871ZM94.5 19.3871C94.5 24.6338 90.2467 28.8871 85 28.8871V29.8871C90.799 29.8871 95.5 25.1861 95.5 19.3871H94.5ZM94.5 11V19.3871H95.5V11H94.5ZM85 1.5C90.2467 1.5 94.5 5.75329 94.5 11H95.5C95.5 5.20101 90.799 0.5 85 0.5V1.5ZM11 1.5H85V0.5H11V1.5Z" fill="#ABDCFF"/>
</svg>
