<svg width="136" height="64" viewBox="0 0 136 64" fill="none" xmlns="http://www.w3.org/2000/svg">
<path fill-rule="evenodd" clip-rule="evenodd" d="M11 1C5.47715 1 1 5.47715 1 11V25V31V63C2.22313 56.0673 8.37398 43.3241 20.1668 41H125C130.523 41 135 36.5228 135 31V11C135 5.47715 130.523 1 125 1H11Z" fill="white"/>
<path d="M1 63H0.5L1.4924 63.0869L1 63ZM20.1668 41V40.5H20.118L20.0701 40.5094L20.1668 41ZM1.5 11C1.5 5.7533 5.75329 1.5 11 1.5V0.5C5.20101 0.5 0.5 5.20101 0.5 11H1.5ZM1.5 25V11H0.5V25H1.5ZM1.5 31V25H0.5V31H1.5ZM1.5 63V31H0.5V63H1.5ZM20.0701 40.5094C14.0124 41.7033 9.42815 45.5688 6.21567 49.9773C3.00527 54.3829 1.13216 59.3732 0.507605 62.9131L1.4924 63.0869C2.09097 59.6941 3.90485 54.8464 7.02385 50.5662C10.1408 46.2889 14.5284 42.6208 20.2634 41.4906L20.0701 40.5094ZM125 40.5H20.1668V41.5H125V40.5ZM134.5 31C134.5 36.2467 130.247 40.5 125 40.5V41.5C130.799 41.5 135.5 36.799 135.5 31H134.5ZM134.5 11V31H135.5V11H134.5ZM125 1.5C130.247 1.5 134.5 5.7533 134.5 11H135.5C135.5 5.20101 130.799 0.5 125 0.5V1.5ZM11 1.5H125V0.5H11V1.5Z" fill="#ABDCFF"/>
</svg>
