<svg width="339" height="493" viewBox="0 0 339 493" fill="none" xmlns="http://www.w3.org/2000/svg">
<path d="M54.1791 48.8924C13.3464 85.8962 -5.6283 148.34 2.22287 202.752C9.89501 255.923 66.4396 285.48 94.8813 330.973C119.231 369.922 122.151 421.793 157.494 451.113C193.704 481.154 242.812 494.131 289.933 492.79C335.039 491.506 376.276 468.964 413.842 443.818C447.857 421.048 473.815 389.665 495.684 355.06C516.838 321.586 527.062 284.359 538.545 246.488C552.768 199.576 594.598 148.685 571.283 105.718C547.512 61.9093 479.656 73.1973 433.849 53.5435C398.339 38.308 369.807 9.88716 331.767 2.9524C291.572 -4.3752 251.945 6.34404 211.583 13.0239C157.584 21.9605 94.7949 12.0852 54.1791 48.8924Z" fill="#357DD2"/>
</svg>
